<svg xmlns="http://www.w3.org/2000/svg" xmlns:xlink="http://www.w3.org/1999/xlink" xmlns:lucid="lucid" width="1651" height="1247"><g transform="translate(-54.5 -54.5)" lucid:page-tab-id="0_0"><path d="M0 0h1760v1360H0z" fill="#fff"/><g filter="url(#a)"><path d="M1220 122h455.56v43H1220z" fill="#fff"/><path d="M1220 164h455.56v43H1220z" fill="#e6e6e6"/><path d="M1220 206h455.56v43H1220z" fill="#fff"/><path d="M1220 248h455.56v43H1220z" fill="#e6e6e6"/><path d="M1220 290h455.56v43H1220z" fill="#fff"/><path d="M1220 332h455.56v43H1220z" fill="#e6e6e6"/><path d="M1220 374h455.56v43H1220z" fill="#fff"/><path d="M1220 416h455.56v43H1220z" fill="#e6e6e6"/><path d="M1220 458h455.56v43H1220z" fill="#fff"/><path d="M1220 500h455.56v43H1220z" fill="#e6e6e6"/><path d="M1220 542h455.56v42H1220z" fill="#fff"/><path d="M1220 80h455.56v42H1220z" fill="#ccc"/><path d="M1220 86c0-3.3 2.7-6 6-6h443.56c3.3 0 6 2.7 6 6v492c0 3.3-2.7 6-6 6H1226c-3.3 0-6-2.7-6-6zM1220 122h455.56M1355.05 122v462M1517.36 122v462" stroke="#5e5e5e" stroke-width="3" fill="none"/><use xlink:href="#b" transform="matrix(1,0,0,1,1230,80) translate(109.2592592592593 26.333333333333332)"/><use xlink:href="#c" transform="matrix(1,0,0,1,1230,80) translate(172.8888888888889 26.333333333333332)"/><use xlink:href="#d" transform="matrix(1,0,0,1,1230,80) translate(187.70370370370372 26.333333333333332)"/><use xlink:href="#e" transform="matrix(1,0,0,1,1230,80) translate(255.85185185185185 26.333333333333332)"/><use xlink:href="#f" transform="matrix(1,0,0,1,1225,124.5) translate(33.982407407407415 23.877777777777776)"/><use xlink:href="#g" transform="matrix(1,0,0,1,1360.0473207787113,124.5) translate(0 23.877777777777776)"/><use xlink:href="#h" transform="matrix(1,0,0,1,1522.3577319109904,124.5) translate(0 23.877777777777776)"/><use xlink:href="#i" transform="matrix(1,0,0,1,1225,166.5) translate(27.518518518518526 23.833333333333332)"/><use xlink:href="#j" transform="matrix(1,0,0,1,1360.0473207787113,166.5) translate(0 23.833333333333332)"/><use xlink:href="#k" transform="matrix(1,0,0,1,1522.3577319109904,166.5) translate(0 23.833333333333332)"/><use xlink:href="#l" transform="matrix(1,0,0,1,1522.3577319109904,166.5) translate(98.96296296296293 23.833333333333332)"/><use xlink:href="#m" transform="matrix(1,0,0,1,1225,208.5) translate(26.475925925925935 23.877777777777776)"/><use xlink:href="#n" transform="matrix(1,0,0,1,1360.0473207787113,208.5) translate(0 23.877777777777776)"/><use xlink:href="#o" transform="matrix(1,0,0,1,1522.3577319109904,208.5) translate(0 23.877777777777776)"/><use xlink:href="#p" transform="matrix(1,0,0,1,1522.3577319109904,208.5) translate(98.3685185185185 23.877777777777776)"/><use xlink:href="#q" transform="matrix(1,0,0,1,1225,250.5) translate(18.25987654320989 23.877777777777776)"/><use xlink:href="#n" transform="matrix(1,0,0,1,1360.0473207787113,250.5) translate(0 23.877777777777776)"/><use xlink:href="#o" transform="matrix(1,0,0,1,1522.3577319109904,250.5) translate(0 23.877777777777776)"/><use xlink:href="#p" transform="matrix(1,0,0,1,1522.3577319109904,250.5) translate(98.3685185185185 23.877777777777776)"/><use xlink:href="#r" transform="matrix(1,0,0,1,1225,292.5) translate(11.185185185185198 23.833333333333332)"/><use xlink:href="#s" transform="matrix(1,0,0,1,1360.0473207787113,292.5) translate(0 23.833333333333332)"/><use xlink:href="#t" transform="matrix(1,0,0,1,1522.3577319109904,292.5) translate(0 23.833333333333332)"/><use xlink:href="#u" transform="matrix(1,0,0,1,1225,334.5) translate(14.851851851851862 23.833333333333332)"/><use xlink:href="#s" transform="matrix(1,0,0,1,1360.0473207787113,334.5) translate(0 23.833333333333332)"/><use xlink:href="#t" transform="matrix(1,0,0,1,1522.3577319109904,334.5) translate(0 23.833333333333332)"/><use xlink:href="#v" transform="matrix(1,0,0,1,1225,376.5) translate(12.666666666666679 23.833333333333332)"/><use xlink:href="#w" transform="matrix(1,0,0,1,1360.0473207787113,376.5) translate(0 23.833333333333332)"/><use xlink:href="#t" transform="matrix(1,0,0,1,1522.3577319109904,376.5) translate(0 23.833333333333332)"/><use xlink:href="#x" transform="matrix(1,0,0,1,1225,418.5) translate(23.14814814814816 23.833333333333332)"/><use xlink:href="#y" transform="matrix(1,0,0,1,1360.0473207787113,418.5) translate(0 23.833333333333332)"/><use xlink:href="#t" transform="matrix(1,0,0,1,1522.3577319109904,418.5) translate(0 23.833333333333332)"/><use xlink:href="#z" transform="matrix(1,0,0,1,1225,460.5) translate(27.44444444444445 23.833333333333332)"/><use xlink:href="#w" transform="matrix(1,0,0,1,1360.0473207787113,460.5) translate(0 23.833333333333332)"/><use xlink:href="#t" transform="matrix(1,0,0,1,1522.3577319109904,460.5) translate(0 23.833333333333332)"/><g><use xlink:href="#A" transform="matrix(1,0,0,1,1225,502.5) translate(9.740740740740755 23.833333333333332)"/></g><g><use xlink:href="#B" transform="matrix(1,0,0,1,1360.0473207787113,502.5) translate(0 23.833333333333332)"/></g><g><use xlink:href="#t" transform="matrix(1,0,0,1,1522.3577319109904,502.5) translate(0 23.833333333333332)"/></g><g><use xlink:href="#C" transform="matrix(1,0,0,1,1225,544.5) translate(24.555555555555564 23.833333333333332)"/></g><g><use xlink:href="#D" transform="matrix(1,0,0,1,1360.0473207787113,544.5) translate(0 23.833333333333332)"/></g><g><use xlink:href="#E" transform="matrix(1,0,0,1,1522.3577319109904,544.5) translate(0 23.833333333333332)"/></g></g><g filter="url(#F)"><path d="M1200 982h480v43h-480z" fill="#fff"/><path d="M1200 1024h480v43h-480z" fill="#e6e6e6"/><path d="M1200 1066h480v43h-480z" fill="#fff"/><path d="M1200 1108h480v43h-480z" fill="#e6e6e6"/><path d="M1200 1150h480v43h-480z" fill="#fff"/><path d="M1200 1192h480v43h-480z" fill="#e6e6e6"/><path d="M1200 1234h480v42h-480z" fill="#fff"/><path d="M1200 940h480v42h-480z" fill="#ccc"/><path d="M1200 946c0-3.3 2.7-6 6-6h468c3.3 0 6 2.7 6 6v324c0 3.3-2.7 6-6 6h-468c-3.3 0-6-2.7-6-6zM1200 982h480M1327 982v294M1500.27 982v294" stroke="#5e5e5e" stroke-width="3" fill="none"/><use xlink:href="#G" transform="matrix(1,0,0,1,1210,940) translate(202.62962962962965 26.333333333333332)"/><use xlink:href="#f" transform="matrix(1,0,0,1,1205,984.5) translate(29.482407407407415 23.877777777777776)"/><use xlink:href="#g" transform="matrix(1,0,0,1,1331.985651352504,984.5) translate(0 23.877777777777776)"/><use xlink:href="#h" transform="matrix(1,0,0,1,1505.2746488040336,984.5) translate(0 23.877777777777776)"/><use xlink:href="#H" transform="matrix(1,0,0,1,1205,1026.5) translate(23.72222222222223 23.833333333333332)"/><use xlink:href="#j" transform="matrix(1,0,0,1,1331.985651352504,1026.5) translate(0 23.833333333333332)"/><use xlink:href="#k" transform="matrix(1,0,0,1,1505.2746488040336,1026.5) translate(0 23.833333333333332)"/><use xlink:href="#l" transform="matrix(1,0,0,1,1505.2746488040336,1026.5) translate(98.96296296296293 23.833333333333332)"/><use xlink:href="#I" transform="matrix(1,0,0,1,1205,1068.5) translate(22.722839506172846 23.877777777777776)"/><use xlink:href="#n" transform="matrix(1,0,0,1,1331.985651352504,1068.5) translate(0 23.877777777777776)"/><use xlink:href="#o" transform="matrix(1,0,0,1,1505.2746488040336,1068.5) translate(0 23.877777777777776)"/><use xlink:href="#p" transform="matrix(1,0,0,1,1505.2746488040336,1068.5) translate(98.3685185185185 23.877777777777776)"/><use xlink:href="#J" transform="matrix(1,0,0,1,1205,1110.5) translate(3.0185185185185333 23.833333333333332)"/><use xlink:href="#j" transform="matrix(1,0,0,1,1331.985651352504,1110.5) translate(0 23.833333333333332)"/><use xlink:href="#E" transform="matrix(1,0,0,1,1505.2746488040336,1110.5) translate(0 23.833333333333332)"/><use xlink:href="#z" transform="matrix(1,0,0,1,1205,1152.5) translate(22.94444444444445 23.833333333333332)"/><use xlink:href="#w" transform="matrix(1,0,0,1,1331.985651352504,1152.5) translate(0 23.833333333333332)"/><use xlink:href="#t" transform="matrix(1,0,0,1,1505.2746488040336,1152.5) translate(0 23.833333333333332)"/><use xlink:href="#K" transform="matrix(1,0,0,1,1205,1194.5) translate(5.944444444444457 23.833333333333332)"/><use xlink:href="#B" transform="matrix(1,0,0,1,1331.985651352504,1194.5) translate(0 23.833333333333332)"/><use xlink:href="#t" transform="matrix(1,0,0,1,1505.2746488040336,1194.5) translate(0 23.833333333333332)"/><use xlink:href="#C" transform="matrix(1,0,0,1,1205,1236.5) translate(20.055555555555564 23.833333333333332)"/><g><use xlink:href="#L" transform="matrix(1,0,0,1,1331.985651352504,1236.5) translate(0 23.833333333333332)"/></g><g><use xlink:href="#E" transform="matrix(1,0,0,1,1505.2746488040336,1236.5) translate(0 23.833333333333332)"/></g></g><g filter="url(#M)"><path d="M500 662h600v43H500z" fill="#fff"/><path d="M500 704h600v43H500z" fill="#e6e6e6"/><path d="M500 746h600v43H500z" fill="#fff"/><path d="M500 788h600v43H500z" fill="#e6e6e6"/><path d="M500 830h600v42H500z" fill="#fff"/><path d="M500 620h600v42H500z" fill="#ccc"/><path d="M500 626c0-3.3 2.7-6 6-6h588c3.3 0 6 2.7 6 6v240c0 3.3-2.7 6-6 6H506c-3.3 0-6-2.7-6-6zM500 662h600M634.54 662v210M769.4 662v210" stroke="#5e5e5e" stroke-width="3" fill="none"/><use xlink:href="#N" transform="matrix(1,0,0,1,510,620) translate(261.9259259259259 26.333333333333332)"/><use xlink:href="#f" transform="matrix(1,0,0,1,505,664.5) translate(33.482407407407415 23.877777777777776)"/><use xlink:href="#g" transform="matrix(1,0,0,1,639.5350073361128,664.5) translate(0 23.877777777777776)"/><use xlink:href="#h" transform="matrix(1,0,0,1,774.4017118075619,664.5) translate(0 23.877777777777776)"/><use xlink:href="#O" transform="matrix(1,0,0,1,505,706.5) translate(26.277777777777786 23.833333333333332)"/><use xlink:href="#j" transform="matrix(1,0,0,1,639.5350073361128,706.5) translate(0 23.833333333333332)"/><use xlink:href="#k" transform="matrix(1,0,0,1,774.4017118075619,706.5) translate(0 23.833333333333332)"/><use xlink:href="#l" transform="matrix(1,0,0,1,774.4017118075619,706.5) translate(98.96296296296293 23.833333333333332)"/><use xlink:href="#P" transform="matrix(1,0,0,1,505,748.5) translate(30.75925925925927 23.833333333333332)"/><use xlink:href="#Q" transform="matrix(1,0,0,1,639.5350073361128,748.5) translate(0 23.833333333333332)"/><use xlink:href="#R" transform="matrix(1,0,0,1,774.4017118075619,748.5) translate(0 23.833333333333332)"/><use xlink:href="#S" transform="matrix(1,0,0,1,774.4017118075619,748.5) translate(91.70370370370368 23.833333333333332)"/><use xlink:href="#T" transform="matrix(1,0,0,1,774.4017118075619,748.5) translate(116.88888888888886 23.833333333333332)"/><use xlink:href="#U" transform="matrix(1,0,0,1,505,790.5) translate(5.537037037037052 23.833333333333332)"/><use xlink:href="#Q" transform="matrix(1,0,0,1,639.5350073361128,790.5) translate(0 23.833333333333332)"/><use xlink:href="#V" transform="matrix(1,0,0,1,774.4017118075619,790.5) translate(0 23.833333333333332)"/><g><use xlink:href="#W" transform="matrix(1,0,0,1,505,832.5) translate(27.018518518518526 23.833333333333332)"/></g><g><use xlink:href="#Q" transform="matrix(1,0,0,1,639.5350073361128,832.5) translate(0 23.833333333333332)"/></g><g><use xlink:href="#t" transform="matrix(1,0,0,1,774.4017118075619,832.5) translate(0 23.833333333333332)"/></g></g><g filter="url(#X)"><path d="M80 222h440v43H80z" fill="#fff"/><path d="M80 264h440v43H80z" fill="#e6e6e6"/><path d="M80 306h440v43H80z" fill="#fff"/><path d="M80 348h440v42H80z" fill="#e6e6e6"/><path d="M80 180h440v42H80z" fill="#ccc"/><path d="M80 186c0-3.3 2.7-6 6-6h428c3.3 0 6 2.7 6 6v198c0 3.3-2.7 6-6 6H86c-3.3 0-6-2.7-6-6zM80 222h440M229.14 222v168M356.65 222v168" stroke="#5e5e5e" stroke-width="3" fill="none"/><use xlink:href="#Y" transform="matrix(1,0,0,1,90,180) translate(134.81481481481484 26.333333333333332)"/><use xlink:href="#Z" transform="matrix(1,0,0,1,90,180) translate(214.14814814814815 26.333333333333332)"/><use xlink:href="#f" transform="matrix(1,0,0,1,85,224.5) translate(40.982407407407415 23.877777777777776)"/><use xlink:href="#g" transform="matrix(1,0,0,1,234.14408661031774,224.5) translate(0 23.877777777777776)"/><use xlink:href="#h" transform="matrix(1,0,0,1,361.65087243582616,224.5) translate(0 23.877777777777776)"/><use xlink:href="#aa" transform="matrix(1,0,0,1,85,266.5) translate(25.62962962962964 23.833333333333332)"/><use xlink:href="#j" transform="matrix(1,0,0,1,234.14408661031774,266.5) translate(0 23.833333333333332)"/><use xlink:href="#k" transform="matrix(1,0,0,1,361.65087243582616,266.5) translate(0 23.833333333333332)"/><use xlink:href="#l" transform="matrix(1,0,0,1,361.65087243582616,266.5) translate(98.96296296296293 23.833333333333332)"/><use xlink:href="#O" transform="matrix(1,0,0,1,85,308.5) translate(33.777777777777786 23.833333333333332)"/><use xlink:href="#j" transform="matrix(1,0,0,1,234.14408661031774,308.5) translate(0 23.833333333333332)"/><use xlink:href="#ab" transform="matrix(1,0,0,1,361.65087243582616,308.5) translate(0 23.833333333333332)"/><use xlink:href="#l" transform="matrix(1,0,0,1,361.65087243582616,308.5) translate(97.55555555555553 23.833333333333332)"/><g><use xlink:href="#ac" transform="matrix(1,0,0,1,85,350.5) translate(2.7037037037037237 23.833333333333332)"/></g><g><use xlink:href="#Q" transform="matrix(1,0,0,1,234.14408661031774,350.5) translate(0 23.833333333333332)"/></g><g><use xlink:href="#t" transform="matrix(1,0,0,1,361.65087243582616,350.5) translate(0 23.833333333333332)"/></g></g><g filter="url(#ad)"><path d="M80 982h480v43H80z" fill="#fff"/><path d="M80 1024h480v43H80z" fill="#e6e6e6"/><path d="M80 1066h480v43H80z" fill="#fff"/><path d="M80 1108h480v43H80z" fill="#e6e6e6"/><path d="M80 1150h480v43H80z" fill="#fff"/><path d="M80 1192h480v43H80z" fill="#e6e6e6"/><path d="M80 1234h480v42H80z" fill="#fff"/><path d="M80 940h480v42H80z" fill="#ccc"/><path d="M80 946c0-3.3 2.7-6 6-6h468c3.3 0 6 2.7 6 6v324c0 3.3-2.7 6-6 6H86c-3.3 0-6-2.7-6-6zM80 982h480M215.87 982v294M388.55 982v294" stroke="#5e5e5e" stroke-width="3" fill="none"/><use xlink:href="#ae" transform="matrix(1,0,0,1,90,940) translate(202.5925925925926 26.333333333333332)"/><use xlink:href="#f" transform="matrix(1,0,0,1,85,984.5) translate(33.982407407407415 23.877777777777776)"/><use xlink:href="#g" transform="matrix(1,0,0,1,220.87372450824205,984.5) translate(0 23.877777777777776)"/><use xlink:href="#h" transform="matrix(1,0,0,1,393.55431022127436,984.5) translate(0 23.877777777777776)"/><use xlink:href="#af" transform="matrix(1,0,0,1,85,1026.5) translate(27.481481481481488 23.833333333333332)"/><use xlink:href="#j" transform="matrix(1,0,0,1,220.87372450824205,1026.5) translate(0 23.833333333333332)"/><use xlink:href="#k" transform="matrix(1,0,0,1,393.55431022127436,1026.5) translate(0 23.833333333333332)"/><use xlink:href="#l" transform="matrix(1,0,0,1,393.55431022127436,1026.5) translate(98.96296296296293 23.833333333333332)"/><use xlink:href="#H" transform="matrix(1,0,0,1,85,1068.5) translate(28.22222222222223 23.833333333333332)"/><use xlink:href="#j" transform="matrix(1,0,0,1,220.87372450824205,1068.5) translate(0 23.833333333333332)"/><use xlink:href="#ab" transform="matrix(1,0,0,1,393.55431022127436,1068.5) translate(0 23.833333333333332)"/><use xlink:href="#l" transform="matrix(1,0,0,1,393.55431022127436,1068.5) translate(97.55555555555553 23.833333333333332)"/><use xlink:href="#ag" transform="matrix(1,0,0,1,85,1110.5) translate(6.777777777777793 23.833333333333332)"/><use xlink:href="#j" transform="matrix(1,0,0,1,220.87372450824205,1110.5) translate(0 23.833333333333332)"/><use xlink:href="#E" transform="matrix(1,0,0,1,393.55431022127436,1110.5) translate(0 23.833333333333332)"/><use xlink:href="#z" transform="matrix(1,0,0,1,85,1152.5) translate(27.44444444444445 23.833333333333332)"/><use xlink:href="#w" transform="matrix(1,0,0,1,220.87372450824205,1152.5) translate(0 23.833333333333332)"/><use xlink:href="#t" transform="matrix(1,0,0,1,393.55431022127436,1152.5) translate(0 23.833333333333332)"/><use xlink:href="#ah" transform="matrix(1,0,0,1,85,1194.5) translate(9.703703703703717 23.833333333333332)"/><use xlink:href="#B" transform="matrix(1,0,0,1,220.87372450824205,1194.5) translate(0 23.833333333333332)"/><use xlink:href="#t" transform="matrix(1,0,0,1,393.55431022127436,1194.5) translate(0 23.833333333333332)"/><use xlink:href="#C" transform="matrix(1,0,0,1,85,1236.5) translate(24.555555555555564 23.833333333333332)"/><g><use xlink:href="#ai" transform="matrix(1,0,0,1,220.87372450824205,1236.5) translate(0 23.833333333333332)"/></g><g><use xlink:href="#E" transform="matrix(1,0,0,1,393.55431022127436,1236.5) translate(0 23.833333333333332)"/></g></g><g filter="url(#aj)"><path d="M240 486c0-3.3 2.7-6 6-6h98c3.3 0 6 2.7 6 6v62c0 3.3-2.7 6-6 6h-98c-3.3 0-6-2.7-6-6z" stroke="#5e5e5e" stroke-width="3" fill="#fff"/><use xlink:href="#ak" transform="matrix(1,0,0,1,245,485) translate(19.666666666666675 37.33333333333333)"/></g><g filter="url(#aj)"><path d="M1405 731c0-3.3 2.7-6 6-6h98c3.3 0 6 2.7 6 6v62c0 3.3-2.7 6-6 6h-98c-3.3 0-6-2.7-6-6z" stroke="#5e5e5e" stroke-width="3" fill="#fff"/><use xlink:href="#al" transform="matrix(1,0,0,1,1410,730) translate(26.33333333333334 37.33333333333333)"/></g><g filter="url(#aj)"><path d="M785 442c0-3.3 2.7-6 6-6h98c3.3 0 6 2.7 6 6v62c0 3.3-2.7 6-6 6h-98c-3.3 0-6-2.7-6-6z" stroke="#5e5e5e" stroke-width="3" fill="#fff"/><use xlink:href="#am" transform="matrix(1,0,0,1,790,441) translate(26.44444444444445 37.33333333333333)"/></g><g filter="url(#an)"><path d="M600 86c0-3.3 2.7-6 6-6h468c3.3 0 6 2.7 6 6v148c0 3.3-2.7 6-6 6H606c-3.3 0-6-2.7-6-6z" stroke="#000" stroke-opacity="0" stroke-width="3" fill="#fff" fill-opacity="0"/><use xlink:href="#ao" transform="matrix(1,0,0,1,605,85) translate(4.345679012345727 34.909722222222214)"/><use xlink:href="#ap" transform="matrix(1,0,0,1,605,85) translate(38.34567901234573 80.24305555555554)"/><use xlink:href="#aq" transform="matrix(1,0,0,1,605,85) translate(153.67283950617286 80.24305555555554)"/><use xlink:href="#ar" transform="matrix(1,0,0,1,605,85) translate(314.3333333333333 80.24305555555554)"/><use xlink:href="#as" transform="matrix(1,0,0,1,605,85) translate(73.18518518518525 125.57638888888886)"/><use xlink:href="#at" transform="matrix(1,0,0,1,605,85) translate(211.5987654320988 125.57638888888886)"/><use xlink:href="#au" transform="matrix(1,0,0,1,605,85) translate(298.2777777777777 125.57638888888886)"/></g><g filter="url(#aj)"><path d="M785 286c0-3.3 2.7-6 6-6h98c3.3 0 6 2.7 6 6v62c0 3.3-2.7 6-6 6h-98c-3.3 0-6-2.7-6-6z" stroke="#5e5e5e" stroke-width="3" fill="#fff"/><use xlink:href="#al" transform="matrix(1,0,0,1,790,285) translate(26.33333333333334 37.33333333333333)"/></g><g filter="url(#aj)"><path d="M825 1098c0-3.3 2.7-6 6-6h98c3.3 0 6 2.7 6 6v62c0 3.3-2.7 6-6 6h-98c-3.3 0-6-2.7-6-6z" stroke="#5e5e5e" stroke-width="3" fill="#fff"/><use xlink:href="#al" transform="matrix(1,0,0,1,830,1097) translate(26.33333333333334 37.33333333333333)"/></g><path d="M897.5 473h302.18" stroke="#5e5e5e" stroke-width="2" fill="none"/><path d="M897.53 474h-1.03v-2h1.03z" fill="#5e5e5e"/><path d="M1218.05 483l-20-10 20-10M1218.05 473h-20" stroke="#5e5e5e" stroke-width="2" fill="#fff"/><path d="M782.5 473H568c-3.3 0-6 2.7-6 6v119.5" stroke="#5e5e5e" stroke-width="2" fill="none"/><path d="M783.5 474h-1.03v-2h1.03z" fill="#5e5e5e"/><path d="M572 598.5h-20M562 618.5v-20" stroke="#5e5e5e" stroke-width="2" fill="#fff"/><path d="M478.5 725H301c-3.3 0-6-2.7-6-6V556.5" stroke="#5e5e5e" stroke-width="2" fill="none"/><path d="M478.5 715v20M498.5 725h-20" stroke="#5e5e5e" stroke-width="2" fill="#fff"/><path d="M296 556.53h-2v-1.03h2z" fill="#5e5e5e"/><path d="M295 477.5v-66" stroke="#5e5e5e" stroke-width="2" fill="none"/><path d="M296 478.5h-2v-1.03h2z" fill="#5e5e5e"/><path d="M285 411.5h20M295 391.5v20" stroke="#5e5e5e" stroke-width="2" fill="#fff"/><path d="M1199.68 317H897.5" stroke="#5e5e5e" stroke-width="2" fill="none"/><path d="M1218.05 327l-20-10 20-10M1218.05 317h-20" stroke="#5e5e5e" stroke-width="2" fill="#fff"/><path d="M897.53 318h-1.03v-2h1.03z" fill="#5e5e5e"/><path d="M782.5 317h-241" stroke="#5e5e5e" stroke-width="2" fill="none"/><path d="M783.5 318h-1.03v-2h1.03z" fill="#5e5e5e"/><path d="M541.5 327v-20M521.5 317h20" stroke="#5e5e5e" stroke-width="2" fill="#fff"/><path d="M1460 605.5v117" stroke="#5e5e5e" stroke-width="2" fill="none"/><path d="M1450 605.5h20M1460 585.5v20" stroke="#5e5e5e" stroke-width="2" fill="#fff"/><path d="M1461 723.5h-2v-1.03h2z" fill="#5e5e5e"/><path d="M1460 801.5v118.18" stroke="#5e5e5e" stroke-width="2" fill="none"/><path d="M1461 801.53h-2v-1.03h2z" fill="#5e5e5e"/><path d="M1450 938.05l10-20 10 20M1460 938.05v-20" stroke="#5e5e5e" stroke-width="2" fill="#fff"/><path d="M937.5 1129h241" stroke="#5e5e5e" stroke-width="2" fill="none"/><path d="M937.53 1130h-1.03v-2h1.03z" fill="#5e5e5e"/><path d="M1178.5 1119v20M1198.5 1129h-20" stroke="#5e5e5e" stroke-width="2" fill="#fff"/><path d="M822.5 1129H580.32" stroke="#5e5e5e" stroke-width="2" fill="none"/><path d="M823.5 1130h-1.03v-2h1.03z" fill="#5e5e5e"/><path d="M561.95 1119l20 10-20 10M561.95 1129h20" stroke="#5e5e5e" stroke-width="2" fill="#fff"/><defs><path fill="#333" d="M143 4C61 4 22-44 18-125c-5-107 100-154 193-111 17 8 29 25 37 43l-32 9c-13-25-37-40-76-40-61 0-88 39-88 99 0 61 29 100 91 101 35 0 62-11 79-27v-45h-74v-28h105v86C228-13 192 4 143 4" id="av"/><path fill="#333" d="M100-194c62-1 85 37 85 99 1 63-27 99-86 99S16-35 15-95c0-66 28-99 85-99zM99-20c44 1 53-31 53-75 0-43-8-75-51-75s-53 32-53 75 10 74 51 75" id="aw"/><path fill="#333" d="M141-36C126-15 110 5 73 4 37 3 15-17 15-53c-1-64 63-63 125-63 3-35-9-54-41-54-24 1-41 7-42 31l-33-3c5-37 33-52 76-52 45 0 72 20 72 64v82c-1 20 7 32 28 27v20c-31 9-61-2-59-35zM48-53c0 20 12 33 32 33 41-3 63-29 60-74-43 2-92-5-92 41" id="ax"/><path fill="#333" d="M24 0v-261h32V0H24" id="ay"/><g id="b"><use transform="matrix(0.07407407407407406,0,0,0.07407407407407406,0,0)" xlink:href="#av"/><use transform="matrix(0.07407407407407406,0,0,0.07407407407407406,20.740740740740737,0)" xlink:href="#aw"/><use transform="matrix(0.07407407407407406,0,0,0.07407407407407406,35.55555555555555,0)" xlink:href="#ax"/><use transform="matrix(0.07407407407407406,0,0,0.07407407407407406,50.37037037037036,0)" xlink:href="#ay"/></g><path fill="#333" d="M0 4l72-265h28L28 4H0" id="az"/><use transform="matrix(0.07407407407407406,0,0,0.07407407407407406,0,0)" xlink:href="#az" id="c"/><path fill="#333" d="M30 0v-248h187v28H63v79h144v27H63v87h162V0H30" id="aA"/><path fill="#333" d="M96-169c-40 0-48 33-48 73s9 75 48 75c24 0 41-14 43-38l32 2c-6 37-31 61-74 61-59 0-76-41-82-99-10-93 101-131 147-64 4 7 5 14 7 22l-32 3c-4-21-16-35-41-35" id="aB"/><path fill="#333" d="M106-169C34-169 62-67 57 0H25v-261h32l-1 103c12-21 28-36 61-36 89 0 53 116 60 194h-32v-121c2-32-8-49-39-48" id="aC"/><g id="d"><use transform="matrix(0.07407407407407406,0,0,0.07407407407407406,0,0)" xlink:href="#aA"/><use transform="matrix(0.07407407407407406,0,0,0.07407407407407406,17.777777777777775,0)" xlink:href="#ax"/><use transform="matrix(0.07407407407407406,0,0,0.07407407407407406,32.59259259259259,0)" xlink:href="#aB"/><use transform="matrix(0.07407407407407406,0,0,0.07407407407407406,45.92592592592592,0)" xlink:href="#aC"/></g><path fill="#333" d="M127-220V0H93v-220H8v-28h204v28h-85" id="aD"/><path fill="#333" d="M16-82v-28h88v28H16" id="aE"/><path fill="#333" d="M30-248c118-7 216 8 213 122C240-48 200 0 122 0H30v-248zM63-27c89 8 146-16 146-99s-60-101-146-95v194" id="aF"/><g id="e"><use transform="matrix(0.07407407407407406,0,0,0.07407407407407406,0,0)" xlink:href="#aD"/><use transform="matrix(0.07407407407407406,0,0,0.07407407407407406,13.259259259259256,0)" xlink:href="#aw"/><use transform="matrix(0.07407407407407406,0,0,0.07407407407407406,28.074074074074066,0)" xlink:href="#aE"/><use transform="matrix(0.07407407407407406,0,0,0.07407407407407406,36.888888888888886,0)" xlink:href="#aF"/><use transform="matrix(0.07407407407407406,0,0,0.07407407407407406,56.07407407407406,0)" xlink:href="#aw"/></g><path d="M63-220v92h138v28H63V0H30v-248h175v28H63" id="aG"/><path d="M24-231v-30h32v30H24zM24 0v-190h32V0H24" id="aH"/><path d="M100-194c63 0 86 42 84 106H49c0 40 14 67 53 68 26 1 43-12 49-29l28 8c-11 28-37 45-77 45C44 4 14-33 15-96c1-61 26-98 85-98zm52 81c6-60-76-77-97-28-3 7-6 17-6 28h103" id="aI"/><path d="M24 0v-261h32V0H24" id="aJ"/><path d="M85-194c31 0 48 13 60 33l-1-100h32l1 261h-30c-2-10 0-23-3-31C134-8 116 4 85 4 32 4 16-35 15-94c0-66 23-100 70-100zm9 24c-40 0-46 34-46 75 0 40 6 74 45 74 42 0 51-32 51-76 0-42-9-74-50-73" id="aK"/><g id="f"><use transform="matrix(0.07469135802469135,0,0,0.07469135802469135,0,0)" xlink:href="#aG"/><use transform="matrix(0.07469135802469135,0,0,0.07469135802469135,16.357407407407404,0)" xlink:href="#aH"/><use transform="matrix(0.07469135802469135,0,0,0.07469135802469135,22.25802469135802,0)" xlink:href="#aI"/><use transform="matrix(0.07469135802469135,0,0,0.07469135802469135,37.19629629629629,0)" xlink:href="#aJ"/><use transform="matrix(0.07469135802469135,0,0,0.07469135802469135,43.096913580246905,0)" xlink:href="#aK"/></g><path d="M127-220V0H93v-220H8v-28h204v28h-85" id="aL"/><path d="M179-190L93 31C79 59 56 82 12 73V49c39 6 53-20 64-50L1-190h34L92-34l54-156h33" id="aM"/><path d="M115-194c55 1 70 41 70 98S169 2 115 4C84 4 66-9 55-30l1 105H24l-1-265h31l2 30c10-21 28-34 59-34zm-8 174c40 0 45-34 45-75s-6-73-45-74c-42 0-51 32-51 76 0 43 10 73 51 73" id="aN"/><g id="g"><use transform="matrix(0.07469135802469135,0,0,0.07469135802469135,0,0)" xlink:href="#aL"/><use transform="matrix(0.07469135802469135,0,0,0.07469135802469135,14.863580246913576,0)" xlink:href="#aM"/><use transform="matrix(0.07469135802469135,0,0,0.07469135802469135,28.30802469135802,0)" xlink:href="#aN"/><use transform="matrix(0.07469135802469135,0,0,0.07469135802469135,43.2462962962963,0)" xlink:href="#aI"/></g><path d="M212-179c-10-28-35-45-73-45-59 0-87 40-87 99 0 60 29 101 89 101 43 0 62-24 78-52l27 14C228-24 195 4 139 4 59 4 22-46 18-125c-6-104 99-153 187-111 19 9 31 26 39 46" id="aO"/><path d="M100-194c62-1 85 37 85 99 1 63-27 99-86 99S16-35 15-95c0-66 28-99 85-99zM99-20c44 1 53-31 53-75 0-43-8-75-51-75s-53 32-53 75 10 74 51 75" id="aP"/><path d="M117-194c89-4 53 116 60 194h-32v-121c0-31-8-49-39-48C34-167 62-67 57 0H25l-1-190h30c1 10-1 24 2 32 11-22 29-35 61-36" id="aQ"/><path d="M135-143c-3-34-86-38-87 0 15 53 115 12 119 90S17 21 10-45l28-5c4 36 97 45 98 0-10-56-113-15-118-90-4-57 82-63 122-42 12 7 21 19 24 35" id="aR"/><path d="M59-47c-2 24 18 29 38 22v24C64 9 27 4 27-40v-127H5v-23h24l9-43h21v43h35v23H59v120" id="aS"/><path d="M114-163C36-179 61-72 57 0H25l-1-190h30c1 12-1 29 2 39 6-27 23-49 58-41v29" id="aT"/><path d="M141-36C126-15 110 5 73 4 37 3 15-17 15-53c-1-64 63-63 125-63 3-35-9-54-41-54-24 1-41 7-42 31l-33-3c5-37 33-52 76-52 45 0 72 20 72 64v82c-1 20 7 32 28 27v20c-31 9-61-2-59-35zM48-53c0 20 12 33 32 33 41-3 63-29 60-74-43 2-92-5-92 41" id="aU"/><g id="h"><use transform="matrix(0.07469135802469135,0,0,0.07469135802469135,0,0)" xlink:href="#aO"/><use transform="matrix(0.07469135802469135,0,0,0.07469135802469135,19.34506172839506,0)" xlink:href="#aP"/><use transform="matrix(0.07469135802469135,0,0,0.07469135802469135,34.28333333333333,0)" xlink:href="#aQ"/><use transform="matrix(0.07469135802469135,0,0,0.07469135802469135,49.2216049382716,0)" xlink:href="#aR"/><use transform="matrix(0.07469135802469135,0,0,0.07469135802469135,62.66604938271604,0)" xlink:href="#aS"/><use transform="matrix(0.07469135802469135,0,0,0.07469135802469135,70.13518518518518,0)" xlink:href="#aT"/><use transform="matrix(0.07469135802469135,0,0,0.07469135802469135,79.02345679012345,0)" xlink:href="#aU"/><use transform="matrix(0.07469135802469135,0,0,0.07469135802469135,93.96172839506171,0)" xlink:href="#aH"/><use transform="matrix(0.07469135802469135,0,0,0.07469135802469135,99.86234567901234,0)" xlink:href="#aQ"/><use transform="matrix(0.07469135802469135,0,0,0.07469135802469135,114.80061728395059,0)" xlink:href="#aS"/></g><path fill="#333" d="M177-190C167-65 218 103 67 71c-23-6-38-20-44-43l32-5c15 47 100 32 89-28v-30C133-14 115 1 83 1 29 1 15-40 15-95c0-56 16-97 71-98 29-1 48 16 59 35 1-10 0-23 2-32h30zM94-22c36 0 50-32 50-73 0-42-14-75-50-75-39 0-46 34-46 75s6 73 46 73" id="aV"/><path fill="#333" d="M24-231v-30h32v30H24zM24 0v-190h32V0H24" id="aW"/><path fill="#333" d="M85-194c31 0 48 13 60 33l-1-100h32l1 261h-30c-2-10 0-23-3-31C134-8 116 4 85 4 32 4 16-35 15-94c0-66 23-100 70-100zm9 24c-40 0-46 34-46 75 0 40 6 74 45 74 42 0 51-32 51-76 0-42-9-74-50-73" id="aX"/><g id="i"><use transform="matrix(0.07407407407407406,0,0,0.07407407407407406,0,0)" xlink:href="#aV"/><use transform="matrix(0.07407407407407406,0,0,0.07407407407407406,14.814814814814811,0)" xlink:href="#aw"/><use transform="matrix(0.07407407407407406,0,0,0.07407407407407406,29.629629629629623,0)" xlink:href="#ax"/><use transform="matrix(0.07407407407407406,0,0,0.07407407407407406,44.444444444444436,0)" xlink:href="#ay"/><use transform="matrix(0.07407407407407406,0,0,0.07407407407407406,50.29629629629628,0)" xlink:href="#aW"/><use transform="matrix(0.07407407407407406,0,0,0.07407407407407406,56.14814814814813,0)" xlink:href="#aX"/></g><path fill="#333" d="M117-194c89-4 53 116 60 194h-32v-121c0-31-8-49-39-48C34-167 62-67 57 0H25l-1-190h30c1 10-1 24 2 32 11-22 29-35 61-36" id="aY"/><path fill="#333" d="M59-47c-2 24 18 29 38 22v24C64 9 27 4 27-40v-127H5v-23h24l9-43h21v43h35v23H59v120" id="aZ"/><g id="j"><use transform="matrix(0.07407407407407406,0,0,0.07407407407407406,0,0)" xlink:href="#aW"/><use transform="matrix(0.07407407407407406,0,0,0.07407407407407406,5.85185185185185,0)" xlink:href="#aY"/><use transform="matrix(0.07407407407407406,0,0,0.07407407407407406,20.66666666666666,0)" xlink:href="#aZ"/></g><path fill="#333" d="M30-248c87 1 191-15 191 75 0 78-77 80-158 76V0H30v-248zm33 125c57 0 124 11 124-50 0-59-68-47-124-48v98" id="ba"/><path fill="#333" d="M114-163C36-179 61-72 57 0H25l-1-190h30c1 12-1 29 2 39 6-27 23-49 58-41v29" id="bb"/><path fill="#333" d="M210-169c-67 3-38 105-44 169h-31v-121c0-29-5-50-35-48C34-165 62-65 56 0H25l-1-190h30c1 10-1 24 2 32 10-44 99-50 107 0 11-21 27-35 58-36 85-2 47 119 55 194h-31v-121c0-29-5-49-35-48" id="bc"/><path fill="#333" d="M179-190L93 31C79 59 56 82 12 73V49c39 6 53-20 64-50L1-190h34L92-34l54-156h33" id="bd"/><g id="k"><use transform="matrix(0.07407407407407406,0,0,0.07407407407407406,0,0)" xlink:href="#ba"/><use transform="matrix(0.07407407407407406,0,0,0.07407407407407406,17.777777777777775,0)" xlink:href="#bb"/><use transform="matrix(0.07407407407407406,0,0,0.07407407407407406,26.592592592592585,0)" xlink:href="#aW"/><use transform="matrix(0.07407407407407406,0,0,0.07407407407407406,32.444444444444436,0)" xlink:href="#bc"/><use transform="matrix(0.07407407407407406,0,0,0.07407407407407406,54.59259259259258,0)" xlink:href="#ax"/><use transform="matrix(0.07407407407407406,0,0,0.07407407407407406,69.40740740740739,0)" xlink:href="#bb"/><use transform="matrix(0.07407407407407406,0,0,0.07407407407407406,78.2222222222222,0)" xlink:href="#bd"/></g><path fill="#333" d="M194 0L95-120 63-95V0H30v-248h33v124l119-124h40L117-140 236 0h-42" id="be"/><path fill="#333" d="M100-194c63 0 86 42 84 106H49c0 40 14 67 53 68 26 1 43-12 49-29l28 8c-11 28-37 45-77 45C44 4 14-33 15-96c1-61 26-98 85-98zm52 81c6-60-76-77-97-28-3 7-6 17-6 28h103" id="bf"/><g id="l"><use transform="matrix(0.07407407407407406,0,0,0.07407407407407406,0,0)" xlink:href="#be"/><use transform="matrix(0.07407407407407406,0,0,0.07407407407407406,17.777777777777775,0)" xlink:href="#bf"/><use transform="matrix(0.07407407407407406,0,0,0.07407407407407406,32.59259259259259,0)" xlink:href="#bd"/></g><path d="M84 4C-5 8 30-112 23-190h32v120c0 31 7 50 39 49 72-2 45-101 50-169h31l1 190h-30c-1-10 1-25-2-33-11 22-28 36-60 37" id="bg"/><g id="m"><use transform="matrix(0.07469135802469135,0,0,0.07469135802469135,0,0)" xlink:href="#bg"/><use transform="matrix(0.07469135802469135,0,0,0.07469135802469135,14.938271604938269,0)" xlink:href="#aR"/><use transform="matrix(0.07469135802469135,0,0,0.07469135802469135,28.38271604938271,0)" xlink:href="#aI"/><use transform="matrix(0.07469135802469135,0,0,0.07469135802469135,43.32098765432098,0)" xlink:href="#aT"/><use transform="matrix(0.07469135802469135,0,0,0.07469135802469135,52.20925925925925,0)" xlink:href="#aH"/><use transform="matrix(0.07469135802469135,0,0,0.07469135802469135,58.109876543209865,0)" xlink:href="#aK"/></g><g id="n"><use transform="matrix(0.07469135802469135,0,0,0.07469135802469135,0,0)" xlink:href="#aH"/><use transform="matrix(0.07469135802469135,0,0,0.07469135802469135,5.900617283950616,0)" xlink:href="#aQ"/><use transform="matrix(0.07469135802469135,0,0,0.07469135802469135,20.838888888888885,0)" xlink:href="#aS"/></g><path d="M177-190C167-65 218 103 67 71c-23-6-38-20-44-43l32-5c15 47 100 32 89-28v-30C133-14 115 1 83 1 29 1 15-40 15-95c0-56 16-97 71-98 29-1 48 16 59 35 1-10 0-23 2-32h30zM94-22c36 0 50-32 50-73 0-42-14-75-50-75-39 0-46 34-46 75s6 73 46 73" id="bh"/><g id="o"><use transform="matrix(0.07469135802469135,0,0,0.07469135802469135,0,0)" xlink:href="#aG"/><use transform="matrix(0.07469135802469135,0,0,0.07469135802469135,16.357407407407404,0)" xlink:href="#aP"/><use transform="matrix(0.07469135802469135,0,0,0.07469135802469135,31.295679012345673,0)" xlink:href="#aT"/><use transform="matrix(0.07469135802469135,0,0,0.07469135802469135,40.18395061728394,0)" xlink:href="#aI"/><use transform="matrix(0.07469135802469135,0,0,0.07469135802469135,55.122222222222206,0)" xlink:href="#aH"/><use transform="matrix(0.07469135802469135,0,0,0.07469135802469135,61.02283950617282,0)" xlink:href="#bh"/><use transform="matrix(0.07469135802469135,0,0,0.07469135802469135,75.9611111111111,0)" xlink:href="#aQ"/></g><path d="M194 0L95-120 63-95V0H30v-248h33v124l119-124h40L117-140 236 0h-42" id="bi"/><g id="p"><use transform="matrix(0.07469135802469135,0,0,0.07469135802469135,0,0)" xlink:href="#bi"/><use transform="matrix(0.07469135802469135,0,0,0.07469135802469135,17.925925925925924,0)" xlink:href="#aI"/><use transform="matrix(0.07469135802469135,0,0,0.07469135802469135,32.86419753086419,0)" xlink:href="#aM"/></g><path d="M115-194c53 0 69 39 70 98 0 66-23 100-70 100C84 3 66-7 56-30L54 0H23l1-261h32v101c10-23 28-34 59-34zm-8 174c40 0 45-34 45-75 0-40-5-75-45-74-42 0-51 32-51 76 0 43 10 73 51 73" id="bj"/><g id="q"><use transform="matrix(0.07469135802469135,0,0,0.07469135802469135,0,0)" xlink:href="#bj"/><use transform="matrix(0.07469135802469135,0,0,0.07469135802469135,14.938271604938269,0)" xlink:href="#aP"/><use transform="matrix(0.07469135802469135,0,0,0.07469135802469135,29.876543209876537,0)" xlink:href="#aU"/><use transform="matrix(0.07469135802469135,0,0,0.07469135802469135,44.81481481481481,0)" xlink:href="#aT"/><use transform="matrix(0.07469135802469135,0,0,0.07469135802469135,53.70308641975308,0)" xlink:href="#aK"/><use transform="matrix(0.07469135802469135,0,0,0.07469135802469135,68.64135802469134,0)" xlink:href="#aH"/><use transform="matrix(0.07469135802469135,0,0,0.07469135802469135,74.54197530864195,0)" xlink:href="#aK"/></g><path fill="#333" d="M135-143c-3-34-86-38-87 0 15 53 115 12 119 90S17 21 10-45l28-5c4 36 97 45 98 0-10-56-113-15-118-90-4-57 82-63 122-42 12 7 21 19 24 35" id="bk"/><g id="r"><use transform="matrix(0.07407407407407406,0,0,0.07407407407407406,0,0)" xlink:href="#bk"/><use transform="matrix(0.07407407407407406,0,0,0.07407407407407406,13.33333333333333,0)" xlink:href="#aZ"/><use transform="matrix(0.07407407407407406,0,0,0.07407407407407406,20.740740740740737,0)" xlink:href="#ax"/><use transform="matrix(0.07407407407407406,0,0,0.07407407407407406,35.55555555555555,0)" xlink:href="#bb"/><use transform="matrix(0.07407407407407406,0,0,0.07407407407407406,44.37037037037037,0)" xlink:href="#aZ"/><use transform="matrix(0.07407407407407406,0,0,0.07407407407407406,51.77777777777777,0)" xlink:href="#aX"/><use transform="matrix(0.07407407407407406,0,0,0.07407407407407406,66.59259259259258,0)" xlink:href="#ax"/><use transform="matrix(0.07407407407407406,0,0,0.07407407407407406,81.40740740740739,0)" xlink:href="#aZ"/><use transform="matrix(0.07407407407407406,0,0,0.07407407407407406,88.8148148148148,0)" xlink:href="#bf"/></g><g id="s"><use transform="matrix(0.07407407407407406,0,0,0.07407407407407406,0,0)" xlink:href="#aX"/><use transform="matrix(0.07407407407407406,0,0,0.07407407407407406,14.814814814814811,0)" xlink:href="#ax"/><use transform="matrix(0.07407407407407406,0,0,0.07407407407407406,29.629629629629623,0)" xlink:href="#aZ"/><use transform="matrix(0.07407407407407406,0,0,0.07407407407407406,37.03703703703703,0)" xlink:href="#bf"/></g><path fill="#333" d="M233-177c-1 41-23 64-60 70L243 0h-38l-65-103H63V0H30v-248c88 3 205-21 203 71zM63-129c60-2 137 13 137-47 0-61-80-42-137-45v92" id="bl"/><path fill="#333" d="M145-31C134-9 116 4 85 4 32 4 16-35 15-94c0-59 17-99 70-100 32-1 48 14 60 33 0-11-1-24 2-32h30l-1 268h-32zM93-21c41 0 51-33 51-76s-8-73-50-73c-40 0-46 35-46 75s5 74 45 74" id="bm"/><path fill="#333" d="M84 4C-5 8 30-112 23-190h32v120c0 31 7 50 39 49 72-2 45-101 50-169h31l1 190h-30c-1-10 1-25-2-33-11 22-28 36-60 37" id="bn"/><g id="t"><use transform="matrix(0.07407407407407406,0,0,0.07407407407407406,0,0)" xlink:href="#bl"/><use transform="matrix(0.07407407407407406,0,0,0.07407407407407406,19.18518518518518,0)" xlink:href="#bf"/><use transform="matrix(0.07407407407407406,0,0,0.07407407407407406,33.99999999999999,0)" xlink:href="#bm"/><use transform="matrix(0.07407407407407406,0,0,0.07407407407407406,48.8148148148148,0)" xlink:href="#bn"/><use transform="matrix(0.07407407407407406,0,0,0.07407407407407406,63.62962962962961,0)" xlink:href="#aW"/><use transform="matrix(0.07407407407407406,0,0,0.07407407407407406,69.48148148148147,0)" xlink:href="#bb"/><use transform="matrix(0.07407407407407406,0,0,0.07407407407407406,78.29629629629628,0)" xlink:href="#bf"/><use transform="matrix(0.07407407407407406,0,0,0.07407407407407406,93.11111111111109,0)" xlink:href="#aX"/></g><g id="u"><use transform="matrix(0.07407407407407406,0,0,0.07407407407407406,0,0)" xlink:href="#bf"/><use transform="matrix(0.07407407407407406,0,0,0.07407407407407406,14.814814814814811,0)" xlink:href="#aY"/><use transform="matrix(0.07407407407407406,0,0,0.07407407407407406,29.629629629629623,0)" xlink:href="#aX"/><use transform="matrix(0.07407407407407406,0,0,0.07407407407407406,44.444444444444436,0)" xlink:href="#aX"/><use transform="matrix(0.07407407407407406,0,0,0.07407407407407406,59.259259259259245,0)" xlink:href="#ax"/><use transform="matrix(0.07407407407407406,0,0,0.07407407407407406,74.07407407407406,0)" xlink:href="#aZ"/><use transform="matrix(0.07407407407407406,0,0,0.07407407407407406,81.48148148148147,0)" xlink:href="#bf"/></g><path fill="#333" d="M115-194c55 1 70 41 70 98S169 2 115 4C84 4 66-9 55-30l1 105H24l-1-265h31l2 30c10-21 28-34 59-34zm-8 174c40 0 45-34 45-75s-6-73-45-74c-42 0-51 32-51 76 0 43 10 73 51 73" id="bo"/><g id="v"><use transform="matrix(0.07407407407407406,0,0,0.07407407407407406,0,0)" xlink:href="#aV"/><use transform="matrix(0.07407407407407406,0,0,0.07407407407407406,14.814814814814811,0)" xlink:href="#aw"/><use transform="matrix(0.07407407407407406,0,0,0.07407407407407406,29.629629629629623,0)" xlink:href="#ax"/><use transform="matrix(0.07407407407407406,0,0,0.07407407407407406,44.444444444444436,0)" xlink:href="#ay"/><use transform="matrix(0.07407407407407406,0,0,0.07407407407407406,50.29629629629628,0)" xlink:href="#aZ"/><use transform="matrix(0.07407407407407406,0,0,0.07407407407407406,57.70370370370369,0)" xlink:href="#bd"/><use transform="matrix(0.07407407407407406,0,0,0.07407407407407406,71.03703703703702,0)" xlink:href="#bo"/><use transform="matrix(0.07407407407407406,0,0,0.07407407407407406,85.85185185185183,0)" xlink:href="#bf"/></g><path fill="#333" d="M87 75C49 33 22-17 22-94c0-76 28-126 65-167h31c-38 41-64 92-64 168S80 34 118 75H87" id="bp"/><path fill="#333" d="M27 0v-27h64v-190l-56 39v-29l58-41h29v221h61V0H27" id="bq"/><path fill="#333" d="M54-142c48-35 137-8 131 61C196 18 31 33 14-55l32-4c7 23 22 37 52 37 35-1 51-22 54-58 4-55-73-65-99-34H22l8-134h141v27H59" id="br"/><path fill="#333" d="M33-261c38 41 65 92 65 168S71 34 33 75H2C39 34 66-17 66-93S39-220 2-261h31" id="bs"/><g id="w"><use transform="matrix(0.07407407407407406,0,0,0.07407407407407406,0,0)" xlink:href="#bk"/><use transform="matrix(0.07407407407407406,0,0,0.07407407407407406,13.33333333333333,0)" xlink:href="#aZ"/><use transform="matrix(0.07407407407407406,0,0,0.07407407407407406,20.740740740740737,0)" xlink:href="#bb"/><use transform="matrix(0.07407407407407406,0,0,0.07407407407407406,29.55555555555555,0)" xlink:href="#aW"/><use transform="matrix(0.07407407407407406,0,0,0.07407407407407406,35.4074074074074,0)" xlink:href="#aY"/><use transform="matrix(0.07407407407407406,0,0,0.07407407407407406,50.22222222222221,0)" xlink:href="#aV"/><use transform="matrix(0.07407407407407406,0,0,0.07407407407407406,65.03703703703702,0)" xlink:href="#bp"/><use transform="matrix(0.07407407407407406,0,0,0.07407407407407406,73.85185185185183,0)" xlink:href="#bq"/><use transform="matrix(0.07407407407407406,0,0,0.07407407407407406,88.66666666666664,0)" xlink:href="#br"/><use transform="matrix(0.07407407407407406,0,0,0.07407407407407406,103.48148148148145,0)" xlink:href="#bs"/></g><g id="x"><use transform="matrix(0.07407407407407406,0,0,0.07407407407407406,0,0)" xlink:href="#bo"/><use transform="matrix(0.07407407407407406,0,0,0.07407407407407406,14.814814814814811,0)" xlink:href="#bb"/><use transform="matrix(0.07407407407407406,0,0,0.07407407407407406,23.62962962962963,0)" xlink:href="#aW"/><use transform="matrix(0.07407407407407406,0,0,0.07407407407407406,29.481481481481477,0)" xlink:href="#aw"/><use transform="matrix(0.07407407407407406,0,0,0.07407407407407406,44.29629629629629,0)" xlink:href="#bb"/><use transform="matrix(0.07407407407407406,0,0,0.07407407407407406,53.1111111111111,0)" xlink:href="#aW"/><use transform="matrix(0.07407407407407406,0,0,0.07407407407407406,58.96296296296295,0)" xlink:href="#aZ"/><use transform="matrix(0.07407407407407406,0,0,0.07407407407407406,66.37037037037035,0)" xlink:href="#bd"/></g><path fill="#333" d="M101-251c68 0 85 55 85 127S166 4 100 4C33 4 14-52 14-124c0-73 17-127 87-127zm-1 229c47 0 54-49 54-102s-4-102-53-102c-51 0-55 48-55 102 0 53 5 102 54 102" id="bt"/><g id="y"><use transform="matrix(0.07407407407407406,0,0,0.07407407407407406,0,0)" xlink:href="#bk"/><use transform="matrix(0.07407407407407406,0,0,0.07407407407407406,13.33333333333333,0)" xlink:href="#aZ"/><use transform="matrix(0.07407407407407406,0,0,0.07407407407407406,20.740740740740737,0)" xlink:href="#bb"/><use transform="matrix(0.07407407407407406,0,0,0.07407407407407406,29.55555555555555,0)" xlink:href="#aW"/><use transform="matrix(0.07407407407407406,0,0,0.07407407407407406,35.4074074074074,0)" xlink:href="#aY"/><use transform="matrix(0.07407407407407406,0,0,0.07407407407407406,50.22222222222221,0)" xlink:href="#aV"/><use transform="matrix(0.07407407407407406,0,0,0.07407407407407406,65.03703703703702,0)" xlink:href="#bp"/><use transform="matrix(0.07407407407407406,0,0,0.07407407407407406,73.85185185185183,0)" xlink:href="#bq"/><use transform="matrix(0.07407407407407406,0,0,0.07407407407407406,88.66666666666664,0)" xlink:href="#bt"/><use transform="matrix(0.07407407407407406,0,0,0.07407407407407406,103.48148148148145,0)" xlink:href="#bs"/></g><g id="z"><use transform="matrix(0.07407407407407406,0,0,0.07407407407407406,0,0)" xlink:href="#bk"/><use transform="matrix(0.07407407407407406,0,0,0.07407407407407406,13.33333333333333,0)" xlink:href="#aZ"/><use transform="matrix(0.07407407407407406,0,0,0.07407407407407406,20.740740740740737,0)" xlink:href="#ax"/><use transform="matrix(0.07407407407407406,0,0,0.07407407407407406,35.55555555555555,0)" xlink:href="#aZ"/><use transform="matrix(0.07407407407407406,0,0,0.07407407407407406,42.962962962962955,0)" xlink:href="#bn"/><use transform="matrix(0.07407407407407406,0,0,0.07407407407407406,57.777777777777764,0)" xlink:href="#bk"/></g><path fill="#333" d="M206 0h-36l-40-164L89 0H53L-1-190h32L70-26l43-164h34l41 164 42-164h31" id="bu"/><g id="A"><use transform="matrix(0.07407407407407406,0,0,0.07407407407407406,0,0)" xlink:href="#bu"/><use transform="matrix(0.07407407407407406,0,0,0.07407407407407406,19.18518518518518,0)" xlink:href="#aC"/><use transform="matrix(0.07407407407407406,0,0,0.07407407407407406,33.99999999999999,0)" xlink:href="#ax"/><use transform="matrix(0.07407407407407406,0,0,0.07407407407407406,48.8148148148148,0)" xlink:href="#aZ"/><use transform="matrix(0.07407407407407406,0,0,0.07407407407407406,56.22222222222221,0)" xlink:href="#aV"/><use transform="matrix(0.07407407407407406,0,0,0.07407407407407406,71.03703703703702,0)" xlink:href="#aw"/><use transform="matrix(0.07407407407407406,0,0,0.07407407407407406,85.85185185185183,0)" xlink:href="#ax"/><use transform="matrix(0.07407407407407406,0,0,0.07407407407407406,100.66666666666664,0)" xlink:href="#ay"/></g><path fill="#333" d="M155-56V0h-30v-56H8v-25l114-167h33v167h35v25h-35zm-30-156c-27 46-58 90-88 131h88v-131" id="bv"/><g id="B"><use transform="matrix(0.07407407407407406,0,0,0.07407407407407406,0,0)" xlink:href="#bk"/><use transform="matrix(0.07407407407407406,0,0,0.07407407407407406,13.33333333333333,0)" xlink:href="#aZ"/><use transform="matrix(0.07407407407407406,0,0,0.07407407407407406,20.740740740740737,0)" xlink:href="#bb"/><use transform="matrix(0.07407407407407406,0,0,0.07407407407407406,29.55555555555555,0)" xlink:href="#aW"/><use transform="matrix(0.07407407407407406,0,0,0.07407407407407406,35.4074074074074,0)" xlink:href="#aY"/><use transform="matrix(0.07407407407407406,0,0,0.07407407407407406,50.22222222222221,0)" xlink:href="#aV"/><use transform="matrix(0.07407407407407406,0,0,0.07407407407407406,65.03703703703702,0)" xlink:href="#bp"/><use transform="matrix(0.07407407407407406,0,0,0.07407407407407406,73.85185185185183,0)" xlink:href="#bv"/><use transform="matrix(0.07407407407407406,0,0,0.07407407407407406,88.66666666666664,0)" xlink:href="#bt"/><use transform="matrix(0.07407407407407406,0,0,0.07407407407407406,103.48148148148145,0)" xlink:href="#bs"/></g><g id="C"><use transform="matrix(0.07407407407407406,0,0,0.07407407407407406,0,0)" xlink:href="#aX"/><use transform="matrix(0.07407407407407406,0,0,0.07407407407407406,14.814814814814811,0)" xlink:href="#bf"/><use transform="matrix(0.07407407407407406,0,0,0.07407407407407406,29.629629629629623,0)" xlink:href="#aZ"/><use transform="matrix(0.07407407407407406,0,0,0.07407407407407406,37.03703703703703,0)" xlink:href="#ax"/><use transform="matrix(0.07407407407407406,0,0,0.07407407407407406,51.85185185185184,0)" xlink:href="#aW"/><use transform="matrix(0.07407407407407406,0,0,0.07407407407407406,57.70370370370369,0)" xlink:href="#ay"/><use transform="matrix(0.07407407407407406,0,0,0.07407407407407406,63.55555555555553,0)" xlink:href="#bk"/></g><path fill="#333" d="M101-251c82-7 93 87 43 132L82-64C71-53 59-42 53-27h129V0H18c2-99 128-94 128-182 0-28-16-43-45-43s-46 15-49 41l-32-3c6-41 34-60 81-64" id="bw"/><g id="D"><use transform="matrix(0.07407407407407406,0,0,0.07407407407407406,0,0)" xlink:href="#bk"/><use transform="matrix(0.07407407407407406,0,0,0.07407407407407406,13.33333333333333,0)" xlink:href="#aZ"/><use transform="matrix(0.07407407407407406,0,0,0.07407407407407406,20.740740740740737,0)" xlink:href="#bb"/><use transform="matrix(0.07407407407407406,0,0,0.07407407407407406,29.55555555555555,0)" xlink:href="#aW"/><use transform="matrix(0.07407407407407406,0,0,0.07407407407407406,35.4074074074074,0)" xlink:href="#aY"/><use transform="matrix(0.07407407407407406,0,0,0.07407407407407406,50.22222222222221,0)" xlink:href="#aV"/><use transform="matrix(0.07407407407407406,0,0,0.07407407407407406,65.03703703703702,0)" xlink:href="#bp"/><use transform="matrix(0.07407407407407406,0,0,0.07407407407407406,73.85185185185183,0)" xlink:href="#bw"/><use transform="matrix(0.07407407407407406,0,0,0.07407407407407406,88.66666666666664,0)" xlink:href="#bt"/><use transform="matrix(0.07407407407407406,0,0,0.07407407407407406,103.48148148148145,0)" xlink:href="#bt"/><use transform="matrix(0.07407407407407406,0,0,0.07407407407407406,118.29629629629626,0)" xlink:href="#bt"/><use transform="matrix(0.07407407407407406,0,0,0.07407407407407406,133.1111111111111,0)" xlink:href="#bs"/></g><path fill="#333" d="M190 0L58-211 59 0H30v-248h39L202-35l-2-213h31V0h-41" id="bx"/><g id="E"><use transform="matrix(0.07407407407407406,0,0,0.07407407407407406,0,0)" xlink:href="#bx"/><use transform="matrix(0.07407407407407406,0,0,0.07407407407407406,19.18518518518518,0)" xlink:href="#bn"/><use transform="matrix(0.07407407407407406,0,0,0.07407407407407406,33.99999999999999,0)" xlink:href="#ay"/><use transform="matrix(0.07407407407407406,0,0,0.07407407407407406,39.85185185185184,0)" xlink:href="#ay"/></g><filter id="a" filterUnits="objectBoundingBox" x="-.03" y="-.01" width="1.06" height="1.05"><feOffset result="offOut" in="SourceAlpha" dy="6"/><feGaussianBlur result="blurOut" in="offOut" stdDeviation="6.5"/><feColorMatrix result="colorOut" in="blurOut" values="0 0 0 0 0.049211841599384853 0 0 0 0 0.2952710495963091 0 0 0 0 0.24605920799692424 0 0 0 0.5019607843137255 0"/><feBlend in="SourceGraphic" in2="colorOut"/></filter><path fill="#333" d="M143 0L79-87 56-68V0H24v-261h32v163l83-92h37l-77 82L181 0h-38" id="by"/><g id="G"><use transform="matrix(0.07407407407407406,0,0,0.07407407407407406,0,0)" xlink:href="#aD"/><use transform="matrix(0.07407407407407406,0,0,0.07407407407407406,13.259259259259256,0)" xlink:href="#ax"/><use transform="matrix(0.07407407407407406,0,0,0.07407407407407406,28.074074074074066,0)" xlink:href="#bk"/><use transform="matrix(0.07407407407407406,0,0,0.07407407407407406,41.4074074074074,0)" xlink:href="#by"/></g><g id="H"><use transform="matrix(0.07407407407407406,0,0,0.07407407407407406,0,0)" xlink:href="#aZ"/><use transform="matrix(0.07407407407407406,0,0,0.07407407407407406,7.407407407407406,0)" xlink:href="#ax"/><use transform="matrix(0.07407407407407406,0,0,0.07407407407407406,22.222222222222218,0)" xlink:href="#bk"/><use transform="matrix(0.07407407407407406,0,0,0.07407407407407406,35.55555555555555,0)" xlink:href="#by"/><use transform="matrix(0.07407407407407406,0,0,0.07407407407407406,48.88888888888888,0)" xlink:href="#aW"/><use transform="matrix(0.07407407407407406,0,0,0.07407407407407406,54.740740740740726,0)" xlink:href="#aX"/></g><g id="I"><use transform="matrix(0.07469135802469135,0,0,0.07469135802469135,0,0)" xlink:href="#bh"/><use transform="matrix(0.07469135802469135,0,0,0.07469135802469135,14.938271604938269,0)" xlink:href="#aP"/><use transform="matrix(0.07469135802469135,0,0,0.07469135802469135,29.876543209876537,0)" xlink:href="#aU"/><use transform="matrix(0.07469135802469135,0,0,0.07469135802469135,44.81481481481481,0)" xlink:href="#aJ"/><use transform="matrix(0.07469135802469135,0,0,0.07469135802469135,50.715432098765426,0)" xlink:href="#aH"/><use transform="matrix(0.07469135802469135,0,0,0.07469135802469135,56.61604938271604,0)" xlink:href="#aK"/></g><g id="J"><use transform="matrix(0.07407407407407406,0,0,0.07407407407407406,0,0)" xlink:href="#aZ"/><use transform="matrix(0.07407407407407406,0,0,0.07407407407407406,7.407407407407406,0)" xlink:href="#ax"/><use transform="matrix(0.07407407407407406,0,0,0.07407407407407406,22.222222222222218,0)" xlink:href="#bk"/><use transform="matrix(0.07407407407407406,0,0,0.07407407407407406,35.55555555555555,0)" xlink:href="#by"/><use transform="matrix(0.07407407407407406,0,0,0.07407407407407406,48.88888888888888,0)" xlink:href="#aw"/><use transform="matrix(0.07407407407407406,0,0,0.07407407407407406,63.70370370370369,0)" xlink:href="#bb"/><use transform="matrix(0.07407407407407406,0,0,0.07407407407407406,72.5185185185185,0)" xlink:href="#aX"/><use transform="matrix(0.07407407407407406,0,0,0.07407407407407406,87.33333333333331,0)" xlink:href="#bf"/><use transform="matrix(0.07407407407407406,0,0,0.07407407407407406,102.14814814814812,0)" xlink:href="#bb"/></g><g id="K"><use transform="matrix(0.07407407407407406,0,0,0.07407407407407406,0,0)" xlink:href="#bu"/><use transform="matrix(0.07407407407407406,0,0,0.07407407407407406,19.18518518518518,0)" xlink:href="#aC"/><use transform="matrix(0.07407407407407406,0,0,0.07407407407407406,33.99999999999999,0)" xlink:href="#ax"/><use transform="matrix(0.07407407407407406,0,0,0.07407407407407406,48.8148148148148,0)" xlink:href="#aZ"/><use transform="matrix(0.07407407407407406,0,0,0.07407407407407406,56.22222222222221,0)" xlink:href="#aZ"/><use transform="matrix(0.07407407407407406,0,0,0.07407407407407406,63.62962962962961,0)" xlink:href="#ax"/><use transform="matrix(0.07407407407407406,0,0,0.07407407407407406,78.44444444444443,0)" xlink:href="#bk"/><use transform="matrix(0.07407407407407406,0,0,0.07407407407407406,91.77777777777776,0)" xlink:href="#by"/></g><g id="L"><use transform="matrix(0.07407407407407406,0,0,0.07407407407407406,0,0)" xlink:href="#bk"/><use transform="matrix(0.07407407407407406,0,0,0.07407407407407406,13.33333333333333,0)" xlink:href="#aZ"/><use transform="matrix(0.07407407407407406,0,0,0.07407407407407406,20.740740740740737,0)" xlink:href="#bb"/><use transform="matrix(0.07407407407407406,0,0,0.07407407407407406,29.55555555555555,0)" xlink:href="#aW"/><use transform="matrix(0.07407407407407406,0,0,0.07407407407407406,35.4074074074074,0)" xlink:href="#aY"/><use transform="matrix(0.07407407407407406,0,0,0.07407407407407406,50.22222222222221,0)" xlink:href="#aV"/><use transform="matrix(0.07407407407407406,0,0,0.07407407407407406,65.03703703703702,0)" xlink:href="#bp"/><use transform="matrix(0.07407407407407406,0,0,0.07407407407407406,73.85185185185183,0)" xlink:href="#bq"/><use transform="matrix(0.07407407407407406,0,0,0.07407407407407406,88.66666666666664,0)" xlink:href="#bw"/><use transform="matrix(0.07407407407407406,0,0,0.07407407407407406,103.48148148148145,0)" xlink:href="#bt"/><use transform="matrix(0.07407407407407406,0,0,0.07407407407407406,118.29629629629626,0)" xlink:href="#bs"/></g><filter id="F" filterUnits="objectBoundingBox" x="-.03" y="-.02" width="1.05" height="1.08"><feOffset result="offOut" in="SourceAlpha" dy="6"/><feGaussianBlur result="blurOut" in="offOut" stdDeviation="6.5"/><feColorMatrix result="colorOut" in="blurOut" values="0 0 0 0 0.049211841599384853 0 0 0 0 0.2952710495963091 0 0 0 0 0.24605920799692424 0 0 0 0.5019607843137255 0"/><feBlend in="SourceGraphic" in2="colorOut"/></filter><path fill="#333" d="M232-93c-1 65-40 97-104 97C67 4 28-28 28-90v-158h33c8 89-33 224 67 224 102 0 64-133 71-224h33v155" id="bz"/><g id="N"><use transform="matrix(0.07407407407407406,0,0,0.07407407407407406,0,0)" xlink:href="#bz"/><use transform="matrix(0.07407407407407406,0,0,0.07407407407407406,19.18518518518518,0)" xlink:href="#bk"/><use transform="matrix(0.07407407407407406,0,0,0.07407407407407406,32.51851851851851,0)" xlink:href="#bf"/><use transform="matrix(0.07407407407407406,0,0,0.07407407407407406,47.33333333333332,0)" xlink:href="#bb"/></g><g id="O"><use transform="matrix(0.07407407407407406,0,0,0.07407407407407406,0,0)" xlink:href="#bn"/><use transform="matrix(0.07407407407407406,0,0,0.07407407407407406,14.814814814814811,0)" xlink:href="#bk"/><use transform="matrix(0.07407407407407406,0,0,0.07407407407407406,28.14814814814814,0)" xlink:href="#bf"/><use transform="matrix(0.07407407407407406,0,0,0.07407407407407406,42.962962962962955,0)" xlink:href="#bb"/><use transform="matrix(0.07407407407407406,0,0,0.07407407407407406,51.77777777777777,0)" xlink:href="#aW"/><use transform="matrix(0.07407407407407406,0,0,0.07407407407407406,57.62962962962962,0)" xlink:href="#aX"/></g><g id="P"><use transform="matrix(0.07407407407407406,0,0,0.07407407407407406,0,0)" xlink:href="#bf"/><use transform="matrix(0.07407407407407406,0,0,0.07407407407407406,14.814814814814811,0)" xlink:href="#bc"/><use transform="matrix(0.07407407407407406,0,0,0.07407407407407406,36.962962962962955,0)" xlink:href="#ax"/><use transform="matrix(0.07407407407407406,0,0,0.07407407407407406,51.777777777777764,0)" xlink:href="#aW"/><use transform="matrix(0.07407407407407406,0,0,0.07407407407407406,57.62962962962962,0)" xlink:href="#ay"/></g><path fill="#333" d="M126-127c33 6 58 20 58 59 0 88-139 92-164 29-3-8-5-16-6-25l32-3c6 27 21 44 54 44 32 0 52-15 52-46 0-38-36-46-79-43v-28c39 1 72-4 72-42 0-27-17-43-46-43-28 0-47 15-49 41l-32-3c6-42 35-63 81-64 48-1 79 21 79 65 0 36-21 52-52 59" id="bA"/><g id="Q"><use transform="matrix(0.07407407407407406,0,0,0.07407407407407406,0,0)" xlink:href="#bk"/><use transform="matrix(0.07407407407407406,0,0,0.07407407407407406,13.33333333333333,0)" xlink:href="#aZ"/><use transform="matrix(0.07407407407407406,0,0,0.07407407407407406,20.740740740740737,0)" xlink:href="#bb"/><use transform="matrix(0.07407407407407406,0,0,0.07407407407407406,29.55555555555555,0)" xlink:href="#aW"/><use transform="matrix(0.07407407407407406,0,0,0.07407407407407406,35.4074074074074,0)" xlink:href="#aY"/><use transform="matrix(0.07407407407407406,0,0,0.07407407407407406,50.22222222222221,0)" xlink:href="#aV"/><use transform="matrix(0.07407407407407406,0,0,0.07407407407407406,65.03703703703702,0)" xlink:href="#bp"/><use transform="matrix(0.07407407407407406,0,0,0.07407407407407406,73.85185185185183,0)" xlink:href="#bA"/><use transform="matrix(0.07407407407407406,0,0,0.07407407407407406,88.66666666666664,0)" xlink:href="#bt"/><use transform="matrix(0.07407407407407406,0,0,0.07407407407407406,103.48148148148145,0)" xlink:href="#bs"/></g><g id="R"><use transform="matrix(0.07407407407407406,0,0,0.07407407407407406,0,0)" xlink:href="#bz"/><use transform="matrix(0.07407407407407406,0,0,0.07407407407407406,19.18518518518518,0)" xlink:href="#aY"/><use transform="matrix(0.07407407407407406,0,0,0.07407407407407406,33.99999999999999,0)" xlink:href="#aW"/><use transform="matrix(0.07407407407407406,0,0,0.07407407407407406,39.85185185185184,0)" xlink:href="#bm"/><use transform="matrix(0.07407407407407406,0,0,0.07407407407407406,54.66666666666665,0)" xlink:href="#bn"/><use transform="matrix(0.07407407407407406,0,0,0.07407407407407406,69.48148148148147,0)" xlink:href="#bf"/></g><path fill="#333" d="M234-2c-28 10-62 0-77-18C117 19 8 12 13-65c3-43 29-61 60-76-25-40-17-114 47-108 35 3 59 15 59 50 0 44-40 53-71 69 14 26 32 50 51 72 14-21 24-43 30-72l26 8c-9 33-21 57-38 82 13 13 33 22 57 15v23zM97-151c25-10 52-18 56-48-1-18-13-29-33-29-42 0-39 50-23 77zM42-66c-3 51 71 58 98 28-20-24-41-51-56-80-23 10-40 24-42 52" id="bB"/><use transform="matrix(0.07407407407407406,0,0,0.07407407407407406,0,0)" xlink:href="#bB" id="S"/><g id="T"><use transform="matrix(0.07407407407407406,0,0,0.07407407407407406,0,0)" xlink:href="#bl"/><use transform="matrix(0.07407407407407406,0,0,0.07407407407407406,19.18518518518518,0)" xlink:href="#bf"/><use transform="matrix(0.07407407407407406,0,0,0.07407407407407406,33.99999999999999,0)" xlink:href="#bm"/><use transform="matrix(0.07407407407407406,0,0,0.07407407407407406,48.8148148148148,0)" xlink:href="#bn"/><use transform="matrix(0.07407407407407406,0,0,0.07407407407407406,63.62962962962961,0)" xlink:href="#aW"/><use transform="matrix(0.07407407407407406,0,0,0.07407407407407406,69.48148148148147,0)" xlink:href="#bb"/><use transform="matrix(0.07407407407407406,0,0,0.07407407407407406,78.29629629629628,0)" xlink:href="#bf"/><use transform="matrix(0.07407407407407406,0,0,0.07407407407407406,93.11111111111109,0)" xlink:href="#aX"/></g><g id="U"><use transform="matrix(0.07407407407407406,0,0,0.07407407407407406,0,0)" xlink:href="#bo"/><use transform="matrix(0.07407407407407406,0,0,0.07407407407407406,14.814814814814811,0)" xlink:href="#ax"/><use transform="matrix(0.07407407407407406,0,0,0.07407407407407406,29.629629629629623,0)" xlink:href="#bk"/><use transform="matrix(0.07407407407407406,0,0,0.07407407407407406,42.962962962962955,0)" xlink:href="#bk"/><use transform="matrix(0.07407407407407406,0,0,0.07407407407407406,56.29629629629628,0)" xlink:href="#bu"/><use transform="matrix(0.07407407407407406,0,0,0.07407407407407406,75.48148148148147,0)" xlink:href="#aw"/><use transform="matrix(0.07407407407407406,0,0,0.07407407407407406,90.29629629629628,0)" xlink:href="#bb"/><use transform="matrix(0.07407407407407406,0,0,0.07407407407407406,99.11111111111109,0)" xlink:href="#aX"/></g><path fill="#333" d="M118-107v75H92v-75H18v-26h74v-75h26v75h74v26h-74" id="bC"/><path fill="#333" d="M115-194c53 0 69 39 70 98 0 66-23 100-70 100C84 3 66-7 56-30L54 0H23l1-261h32v101c10-23 28-34 59-34zm-8 174c40 0 45-34 45-75 0-40-5-75-45-74-42 0-51 32-51 76 0 43 10 73 51 73" id="bD"/><g id="V"><use transform="matrix(0.07407407407407406,0,0,0.07407407407407406,0,0)" xlink:href="#aB"/><use transform="matrix(0.07407407407407406,0,0,0.07407407407407406,13.33333333333333,0)" xlink:href="#aC"/><use transform="matrix(0.07407407407407406,0,0,0.07407407407407406,28.14814814814814,0)" xlink:href="#ax"/><use transform="matrix(0.07407407407407406,0,0,0.07407407407407406,42.962962962962955,0)" xlink:href="#bb"/><use transform="matrix(0.07407407407407406,0,0,0.07407407407407406,51.77777777777777,0)" xlink:href="#bk"/><use transform="matrix(0.07407407407407406,0,0,0.07407407407407406,65.1111111111111,0)" xlink:href="#bC"/><use transform="matrix(0.07407407407407406,0,0,0.07407407407407406,80.66666666666666,0)" xlink:href="#bk"/><use transform="matrix(0.07407407407407406,0,0,0.07407407407407406,94,0)" xlink:href="#bd"/><use transform="matrix(0.07407407407407406,0,0,0.07407407407407406,107.3333333333333,0)" xlink:href="#bc"/><use transform="matrix(0.07407407407407406,0,0,0.07407407407407406,129.48148148148147,0)" xlink:href="#bD"/><use transform="matrix(0.07407407407407406,0,0,0.07407407407407406,144.29629629629628,0)" xlink:href="#aw"/><use transform="matrix(0.07407407407407406,0,0,0.07407407407407406,159.1111111111111,0)" xlink:href="#ay"/><use transform="matrix(0.07407407407407406,0,0,0.07407407407407406,164.96296296296293,0)" xlink:href="#bk"/><use transform="matrix(0.07407407407407406,0,0,0.07407407407407406,178.29629629629628,0)" xlink:href="#aE"/><use transform="matrix(0.07407407407407406,0,0,0.07407407407407406,187.1111111111111,0)" xlink:href="#aE"/><use transform="matrix(0.07407407407407406,0,0,0.07407407407407406,195.92592592592592,0)" xlink:href="#bl"/><use transform="matrix(0.07407407407407406,0,0,0.07407407407407406,215.1111111111111,0)" xlink:href="#bf"/><use transform="matrix(0.07407407407407406,0,0,0.07407407407407406,229.9259259259259,0)" xlink:href="#bm"/><use transform="matrix(0.07407407407407406,0,0,0.07407407407407406,244.7407407407407,0)" xlink:href="#bn"/><use transform="matrix(0.07407407407407406,0,0,0.07407407407407406,259.55555555555554,0)" xlink:href="#aW"/><use transform="matrix(0.07407407407407406,0,0,0.07407407407407406,265.4074074074074,0)" xlink:href="#bb"/><use transform="matrix(0.07407407407407406,0,0,0.07407407407407406,274.22222222222223,0)" xlink:href="#bf"/><use transform="matrix(0.07407407407407406,0,0,0.07407407407407406,289.03703703703707,0)" xlink:href="#aX"/></g><g id="W"><use transform="matrix(0.07407407407407406,0,0,0.07407407407407406,0,0)" xlink:href="#bx"/><use transform="matrix(0.07407407407407406,0,0,0.07407407407407406,19.18518518518518,0)" xlink:href="#ax"/><use transform="matrix(0.07407407407407406,0,0,0.07407407407407406,33.99999999999999,0)" xlink:href="#bc"/><use transform="matrix(0.07407407407407406,0,0,0.07407407407407406,56.14814814814813,0)" xlink:href="#bf"/></g><filter id="M" filterUnits="objectBoundingBox" x="-.02" y="-.03" width="1.04" height="1.1"><feOffset result="offOut" in="SourceAlpha" dy="6"/><feGaussianBlur result="blurOut" in="offOut" stdDeviation="6.5"/><feColorMatrix result="colorOut" in="blurOut" values="0 0 0 0 0.02362168396770473 0 0 0 0 0.24409073433294887 0 0 0 0 0.36613610149942327 0 0 0 0.5019607843137255 0"/><feBlend in="SourceGraphic" in2="colorOut"/></filter><path fill="#333" d="M137 0h-34L2-248h35l83 218 83-218h36" id="bE"/><g id="Y"><use transform="matrix(0.07407407407407406,0,0,0.07407407407407406,0,0)" xlink:href="#bE"/><use transform="matrix(0.07407407407407406,0,0,0.07407407407407406,17.259259259259256,0)" xlink:href="#aW"/><use transform="matrix(0.07407407407407406,0,0,0.07407407407407406,23.111111111111107,0)" xlink:href="#bk"/><use transform="matrix(0.07407407407407406,0,0,0.07407407407407406,36.444444444444436,0)" xlink:href="#aW"/><use transform="matrix(0.07407407407407406,0,0,0.07407407407407406,42.29629629629628,0)" xlink:href="#aw"/><use transform="matrix(0.07407407407407406,0,0,0.07407407407407406,57.111111111111086,0)" xlink:href="#aY"/></g><path fill="#333" d="M160-131c35 5 61 23 61 61C221 17 115-2 30 0v-248c76 3 177-17 177 60 0 33-19 50-47 57zm-97-11c50-1 110 9 110-42 0-47-63-36-110-37v79zm0 115c55-2 124 14 124-45 0-56-70-42-124-44v89" id="bF"/><g id="Z"><use transform="matrix(0.07407407407407406,0,0,0.07407407407407406,0,0)" xlink:href="#bF"/><use transform="matrix(0.07407407407407406,0,0,0.07407407407407406,17.777777777777775,0)" xlink:href="#aw"/><use transform="matrix(0.07407407407407406,0,0,0.07407407407407406,32.59259259259259,0)" xlink:href="#ax"/><use transform="matrix(0.07407407407407406,0,0,0.07407407407407406,47.4074074074074,0)" xlink:href="#bb"/><use transform="matrix(0.07407407407407406,0,0,0.07407407407407406,56.222222222222214,0)" xlink:href="#aX"/></g><g id="aa"><use transform="matrix(0.07407407407407406,0,0,0.07407407407407406,0,0)" xlink:href="#bD"/><use transform="matrix(0.07407407407407406,0,0,0.07407407407407406,14.814814814814811,0)" xlink:href="#aw"/><use transform="matrix(0.07407407407407406,0,0,0.07407407407407406,29.629629629629623,0)" xlink:href="#ax"/><use transform="matrix(0.07407407407407406,0,0,0.07407407407407406,44.444444444444436,0)" xlink:href="#bb"/><use transform="matrix(0.07407407407407406,0,0,0.07407407407407406,53.25925925925925,0)" xlink:href="#aX"/><use transform="matrix(0.07407407407407406,0,0,0.07407407407407406,68.07407407407406,0)" xlink:href="#aW"/><use transform="matrix(0.07407407407407406,0,0,0.07407407407407406,73.92592592592591,0)" xlink:href="#aX"/></g><path fill="#333" d="M63-220v92h138v28H63V0H30v-248h175v28H63" id="bG"/><g id="ab"><use transform="matrix(0.07407407407407406,0,0,0.07407407407407406,0,0)" xlink:href="#bG"/><use transform="matrix(0.07407407407407406,0,0,0.07407407407407406,16.222222222222218,0)" xlink:href="#aw"/><use transform="matrix(0.07407407407407406,0,0,0.07407407407407406,31.03703703703703,0)" xlink:href="#bb"/><use transform="matrix(0.07407407407407406,0,0,0.07407407407407406,39.85185185185185,0)" xlink:href="#bf"/><use transform="matrix(0.07407407407407406,0,0,0.07407407407407406,54.66666666666665,0)" xlink:href="#aW"/><use transform="matrix(0.07407407407407406,0,0,0.07407407407407406,60.518518518518505,0)" xlink:href="#aV"/><use transform="matrix(0.07407407407407406,0,0,0.07407407407407406,75.33333333333331,0)" xlink:href="#aY"/></g><path fill="#333" d="M108 0H70L1-190h34L89-25l56-165h34" id="bH"/><g id="ac"><use transform="matrix(0.07407407407407406,0,0,0.07407407407407406,0,0)" xlink:href="#bH"/><use transform="matrix(0.07407407407407406,0,0,0.07407407407407406,13.33333333333333,0)" xlink:href="#aW"/><use transform="matrix(0.07407407407407406,0,0,0.07407407407407406,19.18518518518518,0)" xlink:href="#bk"/><use transform="matrix(0.07407407407407406,0,0,0.07407407407407406,32.51851851851851,0)" xlink:href="#aW"/><use transform="matrix(0.07407407407407406,0,0,0.07407407407407406,38.37037037037036,0)" xlink:href="#aw"/><use transform="matrix(0.07407407407407406,0,0,0.07407407407407406,53.18518518518517,0)" xlink:href="#aY"/><use transform="matrix(0.07407407407407406,0,0,0.07407407407407406,67.99999999999999,0)" xlink:href="#aY"/><use transform="matrix(0.07407407407407406,0,0,0.07407407407407406,82.8148148148148,0)" xlink:href="#ax"/><use transform="matrix(0.07407407407407406,0,0,0.07407407407407406,97.6296296296296,0)" xlink:href="#bc"/><use transform="matrix(0.07407407407407406,0,0,0.07407407407407406,119.77777777777774,0)" xlink:href="#bf"/></g><filter id="X" filterUnits="objectBoundingBox" x="-.03" y="-.03" width="1.06" height="1.12"><feOffset result="offOut" in="SourceAlpha" dy="6"/><feGaussianBlur result="blurOut" in="offOut" stdDeviation="6.5"/><feColorMatrix result="colorOut" in="blurOut" values="0 0 0 0 0.02362168396770473 0 0 0 0 0.24409073433294887 0 0 0 0 0.36613610149942327 0 0 0 0.5019607843137255 0"/><feBlend in="SourceGraphic" in2="colorOut"/></filter><path fill="#333" d="M185-189c-5-48-123-54-124 2 14 75 158 14 163 119 3 78-121 87-175 55-17-10-28-26-33-46l33-7c5 56 141 63 141-1 0-78-155-14-162-118-5-82 145-84 179-34 5 7 8 16 11 25" id="bI"/><g id="ae"><use transform="matrix(0.07407407407407406,0,0,0.07407407407407406,0,0)" xlink:href="#bI"/><use transform="matrix(0.07407407407407406,0,0,0.07407407407407406,17.777777777777775,0)" xlink:href="#aZ"/><use transform="matrix(0.07407407407407406,0,0,0.07407407407407406,25.18518518518518,0)" xlink:href="#bf"/><use transform="matrix(0.07407407407407406,0,0,0.07407407407407406,39.99999999999999,0)" xlink:href="#bo"/></g><g id="af"><use transform="matrix(0.07407407407407406,0,0,0.07407407407407406,0,0)" xlink:href="#bk"/><use transform="matrix(0.07407407407407406,0,0,0.07407407407407406,13.33333333333333,0)" xlink:href="#aZ"/><use transform="matrix(0.07407407407407406,0,0,0.07407407407407406,20.740740740740737,0)" xlink:href="#bf"/><use transform="matrix(0.07407407407407406,0,0,0.07407407407407406,35.55555555555555,0)" xlink:href="#bo"/><use transform="matrix(0.07407407407407406,0,0,0.07407407407407406,50.37037037037036,0)" xlink:href="#aW"/><use transform="matrix(0.07407407407407406,0,0,0.07407407407407406,56.22222222222221,0)" xlink:href="#aX"/></g><g id="ag"><use transform="matrix(0.07407407407407406,0,0,0.07407407407407406,0,0)" xlink:href="#bk"/><use transform="matrix(0.07407407407407406,0,0,0.07407407407407406,13.33333333333333,0)" xlink:href="#aZ"/><use transform="matrix(0.07407407407407406,0,0,0.07407407407407406,20.740740740740737,0)" xlink:href="#bf"/><use transform="matrix(0.07407407407407406,0,0,0.07407407407407406,35.55555555555555,0)" xlink:href="#bo"/><use transform="matrix(0.07407407407407406,0,0,0.07407407407407406,50.37037037037036,0)" xlink:href="#aw"/><use transform="matrix(0.07407407407407406,0,0,0.07407407407407406,65.18518518518518,0)" xlink:href="#bb"/><use transform="matrix(0.07407407407407406,0,0,0.07407407407407406,73.99999999999999,0)" xlink:href="#aX"/><use transform="matrix(0.07407407407407406,0,0,0.07407407407407406,88.8148148148148,0)" xlink:href="#bf"/><use transform="matrix(0.07407407407407406,0,0,0.07407407407407406,103.6296296296296,0)" xlink:href="#bb"/></g><g id="ah"><use transform="matrix(0.07407407407407406,0,0,0.07407407407407406,0,0)" xlink:href="#bu"/><use transform="matrix(0.07407407407407406,0,0,0.07407407407407406,19.18518518518518,0)" xlink:href="#aC"/><use transform="matrix(0.07407407407407406,0,0,0.07407407407407406,33.99999999999999,0)" xlink:href="#ax"/><use transform="matrix(0.07407407407407406,0,0,0.07407407407407406,48.8148148148148,0)" xlink:href="#aZ"/><use transform="matrix(0.07407407407407406,0,0,0.07407407407407406,56.22222222222221,0)" xlink:href="#bk"/><use transform="matrix(0.07407407407407406,0,0,0.07407407407407406,69.55555555555554,0)" xlink:href="#aZ"/><use transform="matrix(0.07407407407407406,0,0,0.07407407407407406,76.96296296296295,0)" xlink:href="#bf"/><use transform="matrix(0.07407407407407406,0,0,0.07407407407407406,91.77777777777776,0)" xlink:href="#bo"/></g><g id="ai"><use transform="matrix(0.07407407407407406,0,0,0.07407407407407406,0,0)" xlink:href="#bk"/><use transform="matrix(0.07407407407407406,0,0,0.07407407407407406,13.33333333333333,0)" xlink:href="#aZ"/><use transform="matrix(0.07407407407407406,0,0,0.07407407407407406,20.740740740740737,0)" xlink:href="#bb"/><use transform="matrix(0.07407407407407406,0,0,0.07407407407407406,29.55555555555555,0)" xlink:href="#bb"/><use transform="matrix(0.07407407407407406,0,0,0.07407407407407406,38.37037037037037,0)" xlink:href="#aW"/><use transform="matrix(0.07407407407407406,0,0,0.07407407407407406,44.222222222222214,0)" xlink:href="#aY"/><use transform="matrix(0.07407407407407406,0,0,0.07407407407407406,59.037037037037024,0)" xlink:href="#aV"/><use transform="matrix(0.07407407407407406,0,0,0.07407407407407406,73.85185185185183,0)" xlink:href="#bp"/><use transform="matrix(0.07407407407407406,0,0,0.07407407407407406,82.66666666666664,0)" xlink:href="#bq"/><use transform="matrix(0.07407407407407406,0,0,0.07407407407407406,97.48148148148145,0)" xlink:href="#bw"/><use transform="matrix(0.07407407407407406,0,0,0.07407407407407406,112.29629629629626,0)" xlink:href="#bt"/><use transform="matrix(0.07407407407407406,0,0,0.07407407407407406,127.11111111111106,0)" xlink:href="#bs"/></g><filter id="ad" filterUnits="objectBoundingBox" x="-.03" y="-.02" width="1.05" height="1.08"><feOffset result="offOut" in="SourceAlpha" dy="6"/><feGaussianBlur result="blurOut" in="offOut" stdDeviation="6.5"/><feColorMatrix result="colorOut" in="blurOut" values="0 0 0 0 0.049211841599384853 0 0 0 0 0.2952710495963091 0 0 0 0 0.24605920799692424 0 0 0 0.5019607843137255 0"/><feBlend in="SourceGraphic" in2="colorOut"/></filter><g id="ak"><use transform="matrix(0.07407407407407406,0,0,0.07407407407407406,0,0)" xlink:href="#bz"/><use transform="matrix(0.07407407407407406,0,0,0.07407407407407406,19.18518518518518,0)" xlink:href="#bk"/><use transform="matrix(0.07407407407407406,0,0,0.07407407407407406,32.51851851851851,0)" xlink:href="#bf"/><use transform="matrix(0.07407407407407406,0,0,0.07407407407407406,47.33333333333332,0)" xlink:href="#bk"/></g><filter id="aj" filterUnits="objectBoundingBox" x="-.12" y="-.09" width="1.24" height="1.35"><feOffset result="offOut" in="SourceAlpha" dy="6"/><feGaussianBlur result="blurOut" in="offOut" stdDeviation="6.5"/><feColorMatrix result="colorOut" in="blurOut" values="0 0 0 0 0.2578700499807766 0 0 0 0 0.1279507881584006 0 0 0 0 0.2657439446366782 0 0 0 0.5019607843137255 0"/><feBlend in="SourceGraphic" in2="colorOut"/></filter><path fill="#333" d="M197 0v-115H63V0H30v-248h33v105h134v-105h34V0h-34" id="bJ"/><g id="al"><use transform="matrix(0.07407407407407406,0,0,0.07407407407407406,0,0)" xlink:href="#bJ"/><use transform="matrix(0.07407407407407406,0,0,0.07407407407407406,19.18518518518518,0)" xlink:href="#ax"/><use transform="matrix(0.07407407407407406,0,0,0.07407407407407406,33.99999999999999,0)" xlink:href="#bk"/></g><g id="am"><use transform="matrix(0.07407407407407406,0,0,0.07407407407407406,0,0)" xlink:href="#bG"/><use transform="matrix(0.07407407407407406,0,0,0.07407407407407406,16.222222222222218,0)" xlink:href="#aW"/><use transform="matrix(0.07407407407407406,0,0,0.07407407407407406,22.07407407407407,0)" xlink:href="#ay"/><use transform="matrix(0.07407407407407406,0,0,0.07407407407407406,27.92592592592592,0)" xlink:href="#ay"/><use transform="matrix(0.07407407407407406,0,0,0.07407407407407406,33.77777777777777,0)" xlink:href="#bk"/></g><path fill="#333" d="M33-154v-36h34v36H33zM33 0v-36h34V0H33" id="bK"/><path fill="#333" d="M33 0v-38h34V0H33" id="bL"/><path fill="#333" d="M24-231v-30h32v30H24zM-9 49c24 4 33-6 33-30v-209h32V24c2 40-23 58-65 49V49" id="bM"/><g id="ao"><use transform="matrix(0.10493827160493824,0,0,0.10493827160493824,0,0)" xlink:href="#aC"/><use transform="matrix(0.10493827160493824,0,0,0.10493827160493824,20.987654320987648,0)" xlink:href="#aZ"/><use transform="matrix(0.10493827160493824,0,0,0.10493827160493824,31.48148148148147,0)" xlink:href="#aZ"/><use transform="matrix(0.10493827160493824,0,0,0.10493827160493824,41.975308641975296,0)" xlink:href="#bo"/><use transform="matrix(0.10493827160493824,0,0,0.10493827160493824,62.96296296296294,0)" xlink:href="#bk"/><use transform="matrix(0.10493827160493824,0,0,0.10493827160493824,81.85185185185183,0)" xlink:href="#bK"/><use transform="matrix(0.10493827160493824,0,0,0.10493827160493824,92.34567901234566,0)" xlink:href="#az"/><use transform="matrix(0.10493827160493824,0,0,0.10493827160493824,102.83950617283948,0)" xlink:href="#az"/><use transform="matrix(0.10493827160493824,0,0,0.10493827160493824,113.3333333333333,0)" xlink:href="#aV"/><use transform="matrix(0.10493827160493824,0,0,0.10493827160493824,134.32098765432096,0)" xlink:href="#aW"/><use transform="matrix(0.10493827160493824,0,0,0.10493827160493824,142.6111111111111,0)" xlink:href="#aZ"/><use transform="matrix(0.10493827160493824,0,0,0.10493827160493824,153.1049382716049,0)" xlink:href="#aC"/><use transform="matrix(0.10493827160493824,0,0,0.10493827160493824,174.09259259259255,0)" xlink:href="#bn"/><use transform="matrix(0.10493827160493824,0,0,0.10493827160493824,195.0802469135802,0)" xlink:href="#bD"/><use transform="matrix(0.10493827160493824,0,0,0.10493827160493824,216.06790123456784,0)" xlink:href="#bL"/><use transform="matrix(0.10493827160493824,0,0,0.10493827160493824,226.56172839506166,0)" xlink:href="#aB"/><use transform="matrix(0.10493827160493824,0,0,0.10493827160493824,245.45061728395055,0)" xlink:href="#aw"/><use transform="matrix(0.10493827160493824,0,0,0.10493827160493824,266.4382716049382,0)" xlink:href="#bc"/><use transform="matrix(0.10493827160493824,0,0,0.10493827160493824,297.8148148148148,0)" xlink:href="#az"/><use transform="matrix(0.10493827160493824,0,0,0.10493827160493824,308.3086419753086,0)" xlink:href="#bM"/><use transform="matrix(0.10493827160493824,0,0,0.10493827160493824,316.59876543209873,0)" xlink:href="#bf"/><use transform="matrix(0.10493827160493824,0,0,0.10493827160493824,337.5864197530864,0)" xlink:href="#aX"/><use transform="matrix(0.10493827160493824,0,0,0.10493827160493824,358.574074074074,0)" xlink:href="#aW"/><use transform="matrix(0.10493827160493824,0,0,0.10493827160493824,366.86419753086415,0)" xlink:href="#aY"/><use transform="matrix(0.10493827160493824,0,0,0.10493827160493824,387.8518518518518,0)" xlink:href="#aV"/><use transform="matrix(0.10493827160493824,0,0,0.10493827160493824,408.83950617283944,0)" xlink:href="#aZ"/><use transform="matrix(0.10493827160493824,0,0,0.10493827160493824,419.33333333333326,0)" xlink:href="#aw"/><use transform="matrix(0.10493827160493824,0,0,0.10493827160493824,440.32098765432096,0)" xlink:href="#aY"/></g><path fill="#333" d="M240 0l2-218c-23 76-54 145-80 218h-23L58-218 59 0H30v-248h44l77 211c21-75 51-140 76-211h43V0h-30" id="bN"/><path fill="#333" d="M205 0l-28-72H64L36 0H1l101-248h38L239 0h-34zm-38-99l-47-123c-12 45-31 82-46 123h93" id="bO"/><g id="ap"><use transform="matrix(0.10493827160493824,0,0,0.10493827160493824,0,0)" xlink:href="#bN"/><use transform="matrix(0.10493827160493824,0,0,0.10493827160493824,31.376543209876534,0)" xlink:href="#bI"/><use transform="matrix(0.10493827160493824,0,0,0.10493827160493824,56.561728395061714,0)" xlink:href="#bI"/><use transform="matrix(0.10493827160493824,0,0,0.10493827160493824,81.74691358024688,0)" xlink:href="#bO"/></g><path fill="#333" d="M134-131c28 9 52 24 51 62-1 50-34 73-85 73S17-19 16-69c0-36 21-54 49-61-75-25-45-126 34-121 46 3 78 18 79 63 0 33-17 51-44 57zm-34-11c31 1 46-15 46-44 0-28-17-43-47-42-29 0-46 13-45 42 1 28 16 44 46 44zm1 122c35 0 51-18 51-52 0-30-18-46-53-46-33 0-51 17-51 47 0 34 19 51 53 51" id="bP"/><path fill="#333" d="M266 0h-40l-56-210L115 0H75L2-248h35L96-30l15-64 43-154h32l59 218 59-218h35" id="bQ"/><g id="aq"><use transform="matrix(0.10493827160493824,0,0,0.10493827160493824,0,0)" xlink:href="#bq"/><use transform="matrix(0.10493827160493824,0,0,0.10493827160493824,20.987654320987648,0)" xlink:href="#bP"/><use transform="matrix(0.10493827160493824,0,0,0.10493827160493824,41.975308641975296,0)" xlink:href="#aE"/><use transform="matrix(0.10493827160493824,0,0,0.10493827160493824,54.46296296296295,0)" xlink:href="#bQ"/><use transform="matrix(0.10493827160493824,0,0,0.10493827160493824,89.30246913580244,0)" xlink:href="#bf"/><use transform="matrix(0.10493827160493824,0,0,0.10493827160493824,110.29012345679008,0)" xlink:href="#bf"/><use transform="matrix(0.10493827160493824,0,0,0.10493827160493824,131.27777777777774,0)" xlink:href="#by"/></g><g id="ar"><use transform="matrix(0.10493827160493824,0,0,0.10493827160493824,0,0)" xlink:href="#ba"/><use transform="matrix(0.10493827160493824,0,0,0.10493827160493824,25.185185185185176,0)" xlink:href="#bb"/><use transform="matrix(0.10493827160493824,0,0,0.10493827160493824,37.67283950617283,0)" xlink:href="#aw"/><use transform="matrix(0.10493827160493824,0,0,0.10493827160493824,58.66049382716047,0)" xlink:href="#bM"/><use transform="matrix(0.10493827160493824,0,0,0.10493827160493824,66.9506172839506,0)" xlink:href="#bf"/><use transform="matrix(0.10493827160493824,0,0,0.10493827160493824,87.93827160493825,0)" xlink:href="#aB"/><use transform="matrix(0.10493827160493824,0,0,0.10493827160493824,106.82716049382714,0)" xlink:href="#aZ"/></g><path fill="#333" d="M212-179c-10-28-35-45-73-45-59 0-87 40-87 99 0 60 29 101 89 101 43 0 62-24 78-52l27 14C228-24 195 4 139 4 59 4 22-46 18-125c-6-104 99-153 187-111 19 9 31 26 39 46" id="bR"/><g id="as"><use transform="matrix(0.10493827160493824,0,0,0.10493827160493824,0,0)" xlink:href="#bR"/><use transform="matrix(0.10493827160493824,0,0,0.10493827160493824,27.179012345679002,0)" xlink:href="#ax"/><use transform="matrix(0.10493827160493824,0,0,0.10493827160493824,48.16666666666665,0)" xlink:href="#aY"/><use transform="matrix(0.10493827160493824,0,0,0.10493827160493824,69.1543209876543,0)" xlink:href="#bH"/><use transform="matrix(0.10493827160493824,0,0,0.10493827160493824,88.04320987654319,0)" xlink:href="#ax"/><use transform="matrix(0.10493827160493824,0,0,0.10493827160493824,109.03086419753083,0)" xlink:href="#bk"/></g><path fill="#333" d="M137-103V0h-34v-103L8-248h37l75 118 75-118h37" id="bS"/><g id="at"><use transform="matrix(0.10493827160493824,0,0,0.10493827160493824,0,0)" xlink:href="#bS"/><use transform="matrix(0.10493827160493824,0,0,0.10493827160493824,21.722222222222214,0)" xlink:href="#aw"/><use transform="matrix(0.10493827160493824,0,0,0.10493827160493824,42.70987654320986,0)" xlink:href="#bn"/><use transform="matrix(0.10493827160493824,0,0,0.10493827160493824,63.697530864197496,0)" xlink:href="#bb"/></g><g id="au"><use transform="matrix(0.10493827160493824,0,0,0.10493827160493824,0,0)" xlink:href="#av"/><use transform="matrix(0.10493827160493824,0,0,0.10493827160493824,29.382716049382708,0)" xlink:href="#aw"/><use transform="matrix(0.10493827160493824,0,0,0.10493827160493824,50.37037037037035,0)" xlink:href="#ax"/><use transform="matrix(0.10493827160493824,0,0,0.10493827160493824,71.358024691358,0)" xlink:href="#ay"/><use transform="matrix(0.10493827160493824,0,0,0.10493827160493824,79.64814814814812,0)" xlink:href="#bk"/></g><filter id="an" filterUnits="objectBoundingBox" x="-.03" y="-.04" width="1.05" height="1.16"><feOffset result="offOut" in="SourceAlpha" dy="6"/><feGaussianBlur result="blurOut" in="offOut" stdDeviation="6.5"/><feColorMatrix result="colorOut" in="blurOut" values="0 0 0 0 0.02362168396770473 0 0 0 0 0.24409073433294887 0 0 0 0 0.36613610149942327 0 0 0 0.5019607843137255 0"/><feBlend in="SourceGraphic" in2="colorOut"/></filter></defs></g></svg>